<?xml version="1.0" encoding="utf-8"?>
<!-- Generator: Adobe Illustrator 19.0.0, SVG Export Plug-In . SVG Version: 6.00 Build 0)  -->
<svg version="1.1" id="Layer_1" xmlns="http://www.w3.org/2000/svg" xmlns:xlink="http://www.w3.org/1999/xlink" x="0px" y="0px"
	 viewBox="516 528 1831 225" style="enable-background:new 516 528 1831 225;" xml:space="preserve">
<style type="text/css">
	.st0{fill:#FFFFFF;}
	.st1{fill:#33461B;}
</style>
<path class="st0" d="M667.8,634c3.1-4.3,5.1-9.5,5.8-15c0-0.1,0-0.1,0-0.2c0.1-1.2,0.2-2.3,0.2-3.5c0-12.2-6.8-22.9-16.9-28.5
	c-0.2-0.3-0.6-0.5-1-0.5c-4.4-2.2-9.4-3.5-14.6-3.5c-2,0-3.9,0.2-5.8,0.5h-0.1c-0.4-0.1-0.8,0-1.2,0.3c-13.5,3-23.9,14.4-25.3,28.5
	v0.1c-0.1,1-0.1,2-0.1,3.1c0,17.9,14.6,32.4,32.4,32.4c10.5,0,19.9-5,25.8-12.8C667.5,634.7,667.7,634.4,667.8,634z M622.9,592.4
	c3.1-2.5,6.8-4.4,10.7-5.5c0.3,3.6,2.8,6,5.4,7.9c-1.2,0.9-2.4,1.9-3.5,3C631.5,595.6,627.3,593.8,622.9,592.4z M641.6,596.6
	c5.4,3.6,8.7,3.9,12.1,4.2c2,0.2,4.2,0.4,7,1.3c4.4,1.4,9.5,4.5,9.9,16.6c-0.5,4.3-1.9,8.3-4,11.9c-6.3-13.1-16.1-23.9-28.3-31.2
	C639.3,598.3,640.4,597.4,641.6,596.6z M667.9,602.8c-1.7-1.6-3.8-2.8-6.4-3.7c-3.2-1-5.5-1.2-7.7-1.4c-3-0.3-5.5-0.5-9.7-3
	c3.4-2.2,7.2-4,11.2-5.2C660.9,592.5,665.3,597.2,667.9,602.8z M651.5,587.7c-3.5,1.4-6.9,3.1-10,5.2c-3-2.1-4.9-3.9-5-6.7
	c1.5-0.3,3.1-0.4,4.7-0.4C644.9,585.9,648.3,586.5,651.5,587.7z M620.3,594.7c0.1,0,0.1,0.1,0.2,0.1c4.4,1.3,8.7,3.1,12.7,5.2
	c-1.7,1.8-3.3,3.7-4.7,5.7c-2.7-1.9-5.4-2.7-8.1-2.3c-2.5,0.3-4.9,1.6-7.3,3.8C614.4,602.4,616.9,598.1,620.3,594.7z M611.9,615.3
	c0-0.8,0-1.7,0.1-2.5c2.9-3.9,5.9-6.1,8.8-6.5c2-0.3,4,0.3,6.1,1.8c-4.9,7.7-7.7,16.8-7.9,26.2C614.5,629.2,611.9,622.6,611.9,615.3
	z M621.9,637.4c0-0.7-0.1-1.4-0.1-2.1c0-9.1,2.6-17.9,7.3-25.3c6.4,5.7,7,10.2,7.7,15.8c0.7,5.2,1.4,11,6.9,18.8
	c-0.8,0.1-1.6,0.1-2.4,0.1C633.9,644.8,627.1,642,621.9,637.4z M647.1,644.2c-5.9-7.7-6.6-13.3-7.3-18.7c-0.7-5.8-1.5-11.4-9-18
	c1.5-2.2,3.2-4.2,5.1-6.1c12.5,7.3,22.5,18.4,28.6,31.9C660.3,638.8,654.1,642.8,647.1,644.2z"/>
<path class="st0" d="M2340.8,727c3.1-4.3,5.1-9.5,5.8-15c0-0.1,0-0.1,0-0.2c0.1-1.2,0.2-2.3,0.2-3.5c0-12.2-6.8-22.9-16.9-28.5
	c-0.2-0.3-0.6-0.5-1-0.5c-4.4-2.2-9.4-3.5-14.6-3.5c-2,0-3.9,0.2-5.8,0.5h-0.1c-0.4-0.1-0.8,0-1.2,0.3c-13.5,3-23.9,14.4-25.3,28.5
	v0.1c-0.1,1-0.1,2-0.1,3.1c0,17.9,14.6,32.4,32.4,32.4c10.5,0,19.9-5,25.8-12.8C2340.5,727.7,2340.7,727.4,2340.8,727z
	 M2295.9,685.4c3.1-2.5,6.8-4.4,10.7-5.5c0.3,3.6,2.8,6,5.4,7.9c-1.2,0.9-2.4,1.9-3.5,3C2304.5,688.6,2300.3,686.8,2295.9,685.4z
	 M2314.6,689.6c5.4,3.6,8.7,3.9,12.1,4.2c2,0.2,4.2,0.4,7,1.3c4.4,1.4,9.5,4.5,9.9,16.6c-0.5,4.3-1.9,8.3-4,11.9
	c-6.3-13.1-16.1-23.9-28.3-31.2C2312.3,691.3,2313.4,690.4,2314.6,689.6z M2340.9,695.8c-1.7-1.6-3.8-2.8-6.4-3.7
	c-3.2-1-5.5-1.2-7.7-1.4c-3-0.3-5.5-0.5-9.7-3c3.4-2.2,7.2-4,11.2-5.2C2333.9,685.5,2338.3,690.2,2340.9,695.8z M2324.5,680.7
	c-3.5,1.4-6.9,3.1-10,5.2c-3-2.1-4.9-3.9-5-6.7c1.5-0.3,3.1-0.4,4.7-0.4C2317.9,678.9,2321.3,679.5,2324.5,680.7z M2293.3,687.7
	c0.1,0,0.1,0.1,0.2,0.1c4.4,1.3,8.7,3.1,12.7,5.2c-1.7,1.8-3.3,3.7-4.7,5.7c-2.7-1.9-5.4-2.7-8.1-2.3c-2.5,0.3-4.9,1.6-7.3,3.8
	C2287.4,695.4,2289.9,691.1,2293.3,687.7z M2284.9,708.3c0-0.8,0-1.7,0.1-2.5c2.9-3.9,5.9-6.1,8.8-6.5c2-0.3,4,0.3,6.1,1.8
	c-4.9,7.7-7.7,16.8-7.9,26.2C2287.5,722.2,2284.9,715.6,2284.9,708.3z M2294.9,730.4c0-0.7-0.1-1.4-0.1-2.1c0-9.1,2.6-17.9,7.3-25.3
	c6.4,5.7,7,10.2,7.7,15.8c0.7,5.2,1.4,11,6.9,18.8c-0.8,0.1-1.6,0.1-2.4,0.1C2306.9,737.8,2300.1,735,2294.9,730.4z M2320.1,737.2
	c-5.9-7.7-6.6-13.3-7.3-18.7c-0.7-5.8-1.5-11.4-9-18c1.5-2.2,3.2-4.2,5.1-6.1c12.5,7.3,22.5,18.4,28.6,31.9
	C2333.3,731.8,2327.1,735.8,2320.1,737.2z"/>
<title>Icon</title>
<desc>Created with Sketch.</desc>
<g>
	<path class="st0" d="M526.5,690.5h7.5c0.8,0,1.5-0.7,1.5-1.5s-0.7-1.5-1.5-1.5h-7.5c-0.8,0-1.5,0.7-1.5,1.5
		S525.7,690.5,526.5,690.5z"/>
	<path class="st0" d="M534,682.5h-7.5c-0.8,0-1.5,0.7-1.5,1.5s0.7,1.5,1.5,1.5h7.5c0.8,0,1.5-0.7,1.5-1.5S534.9,682.5,534,682.5z"/>
	<path class="st0" d="M534,723.5h-7.5c-0.8,0-1.5,0.7-1.5,1.5s0.7,1.5,1.5,1.5h7.5c0.8,0,1.5-0.7,1.5-1.5S534.9,723.5,534,723.5z"/>
	<path class="st0" d="M534,718.5h-7.5c-0.8,0-1.5,0.7-1.5,1.5s0.7,1.5,1.5,1.5h7.5c0.8,0,1.5-0.7,1.5-1.5S534.9,718.5,534,718.5z"/>
	<path class="st0" d="M550.2,687.5h-7.5c-0.8,0-1.5,0.7-1.5,1.5s0.7,1.5,1.5,1.5h7.5c0.8,0,1.5-0.7,1.5-1.5S551,687.5,550.2,687.5z"
		/>
	<path class="st0" d="M542.7,685.5h7.5c0.8,0,1.5-0.7,1.5-1.5s-0.7-1.5-1.5-1.5h-7.5c-0.8,0-1.5,0.7-1.5,1.5
		S541.8,685.5,542.7,685.5z"/>
	<path class="st0" d="M550.2,723.5h-7.5c-0.8,0-1.5,0.7-1.5,1.5s0.7,1.5,1.5,1.5h7.5c0.8,0,1.5-0.7,1.5-1.5S551,723.5,550.2,723.5z"
		/>
	<path class="st0" d="M542.7,721.5h7.5c0.8,0,1.5-0.7,1.5-1.5s-0.7-1.5-1.5-1.5h-7.5c-0.8,0-1.5,0.7-1.5,1.5
		S541.8,721.5,542.7,721.5z"/>
	<path class="st0" d="M586.4,727.5l-13.7-49.2c-0.5-1.8-2.4-2.9-4.2-2.4l-11.6,3c-0.4,0.1-0.8,0.3-1.2,0.5c-0.4-1.4-1.7-2.4-3.3-2.4
		h-12c-0.8,0-1.5,0.3-2.1,0.7c-0.6-0.4-1.3-0.7-2.1-0.7h-12c-1.9,0-3.5,1.5-3.5,3.4v50.9c0,1.9,1.6,3.4,3.5,3.4h12
		c0.8,0,1.5-0.3,2.1-0.7c0.6,0.4,1.3,0.7,2.1,0.7h12c1.9,0,3.5-1.5,3.5-3.4v-43l12.2,43.8c0.4,1.5,1.8,2.5,3.4,2.5
		c0.3,0,0.6,0,0.9-0.1l11.6-3c0.9-0.2,1.7-0.8,2.1-1.6C586.5,729.2,586.6,728.3,586.4,727.5z M536.7,731.3c0,0.2-0.2,0.4-0.5,0.4
		h-12c-0.3,0-0.5-0.2-0.5-0.4v-50.9c0-0.2,0.2-0.4,0.5-0.4h12c0.3,0,0.5,0.2,0.5,0.4V731.3z M552.9,731.3c0,0.2-0.2,0.4-0.5,0.4h-12
		c-0.3,0-0.5-0.2-0.5-0.4v-50.9c0-0.2,0.2-0.4,0.5-0.4h12c0.3,0,0.5,0.2,0.5,0.4V731.3z M583.4,728.5c0,0.1-0.1,0.2-0.3,0.2l-11.6,3
		c-0.3,0.1-0.5-0.1-0.6-0.3l-13.7-49.2c0-0.1,0-0.2,0-0.3c0-0.1,0.1-0.2,0.3-0.2l0,0l11.6-3h0.1c0.2,0,0.4,0.1,0.5,0.3l13.7,49.2
		C583.5,728.4,583.5,728.5,583.4,728.5z"/>
	<path class="st0" d="M571.2,688.5c-0.2-0.8-1-1.3-1.8-1.1l-7.3,1.9c-0.8,0.2-1.3,1-1.1,1.8c0.2,0.7,0.8,1.1,1.5,1.1
		c0.1,0,0.2,0,0.4,0l7.3-1.9C570.9,690.1,571.4,689.3,571.2,688.5z"/>
	<path class="st0" d="M561.5,687.4l7.3-1.9c0.8-0.2,1.3-1,1.1-1.8c-0.2-0.8-1-1.3-1.8-1.1l-7.3,1.9c-0.8,0.2-1.3,1-1.1,1.8
		c0.2,0.7,0.8,1.1,1.5,1.1C561.2,687.4,561.3,687.4,561.5,687.4z"/>
	<path class="st0" d="M579,722l-7.3,1.9c-0.8,0.2-1.3,1-1.1,1.8c0.2,0.7,0.8,1.1,1.5,1.1c0.1,0,0.2,0,0.4,0l7.3-1.9
		c0.8-0.2,1.3-1,1.1-1.8C580.6,722.3,579.8,721.8,579,722z"/>
	<path class="st0" d="M571.1,722l7.3-1.9c0.8-0.2,1.3-1,1.1-1.8s-1-1.3-1.8-1.1l-7.3,1.9c-0.8,0.2-1.3,1-1.1,1.8
		c0.2,0.7,0.8,1.1,1.5,1.1C570.9,722,571,722,571.1,722z"/>
</g>
<title>Icon</title>
<desc>Created with Sketch.</desc>
<g>
	<path class="st0" d="M735.9,699.6c-0.4-4.3-2.4-6.1-4.1-7.7c-1.5-1.3-2.6-2.4-3-5v-10.6c1-1.5,1.2-2.8,0.7-4
		c-0.8-1.7-3-2.5-6.8-2.6h-0.2c0,0-0.1,0-0.2,0h-0.2c-3.7,0.1-6.1,1.1-6.8,2.8c-0.4,0.8-0.5,2.1,0.7,3.7v10.5c-0.4,2.5-1.5,3.6-3,5
		c-1.8,1.6-3.7,3.4-4.1,7.7v0.1l0.3,25.9c0,2.4,0,3.8,1,4.9c1,1.1,2.6,1.1,5.1,1.1h2.4c4.1,0,8,0,12.2,0c2.3,0,3.9-0.1,5-1.1
		c1-1,1-2.3,1-4.3v-0.5l0.3-25.9C735.9,699.7,735.9,699.6,735.9,699.6z M722.1,672.8h0.2h0.3c2.7,0.1,3.7,0.5,4,0.7h-8.3l0,0
		C718.8,673.2,719.9,672.8,722.1,672.8z M725.5,717.5h-13.6l-0.1-13h13.7V717.5L725.5,717.5z M732.7,726.1c0,0.9,0,2-0.1,2.2
		c-0.2,0.2-1.2,0.3-2.8,0.3c-2.2,0-4.3,0-6.4,0c-1.9,0-3.9,0-5.9,0h-2.4c-0.8,0-2.7,0-3-0.2c-0.2-0.3-0.2-1.6-0.2-2.8v-5.1H726
		c0.3,0.2,0.6,0.3,0.9,0.3c0.7,0,1.3-0.5,1.5-1.2c0.1-0.2,0.1-0.4,0.1-0.6s0-0.4-0.1-0.5v-14.2c0.4-0.3,0.7-0.7,0.7-1.3
		c0-0.8-0.7-1.5-1.5-1.5h-15.9v-1.7c0.3-3.1,1.6-4.3,3.2-5.7c1.6-1.5,3.5-3.2,3.9-6.9c0-0.1,0-0.1,0-0.2v-10.5h6.9V687
		c0,0.1,0,0.1,0,0.2c0.5,3.7,2.3,5.4,3.9,6.9c1.5,1.4,2.9,2.6,3.2,5.7l-0.3,25.9L732.7,726.1z"/>
	<path class="st0" d="M756.3,713c1.5-1.2,2.3-2.8,2.2-4.4l-0.4-6.2c0-0.8-0.7-1.4-1.6-1.4c-0.8,0-1.5,0.8-1.4,1.6l0.4,6.2
		c0.1,0.9-0.7,1.7-1.1,1.9c-0.8,0.6-1.8,1-2.9,1c-0.8,0-1.5,0.7-1.5,1.5s0.7,1.5,1.5,1.5C753.3,714.7,755,714.1,756.3,713z"/>
	<path class="st0" d="M760,729.4h-7.5v-10.9c2.9-0.3,5.6-1.6,7.5-3.5c1.6-1.7,2.5-3.8,2.4-6l-0.5-12.9V696c0-0.1,0-0.1,0-0.2l-0.3-7
		c0-0.8-0.7-1.4-1.5-1.4h-18c-0.8,0-1.5,0.6-1.5,1.4l-0.3,7c0,0.1,0,0.1,0,0.2v0.1l-0.5,12.9c-0.1,2.2,0.8,4.3,2.4,6
		c1.8,1.9,4.4,3.1,7.2,3.4v10.9h-7.3c-0.4,0-0.7,0.3-0.7,0.7c0,0.4,0.3,0.7,0.7,0.7h7.9c0.2,0.2,0.5,0.3,0.9,0.3s0.6-0.1,0.9-0.3
		h8.2c0.4,0,0.7-0.3,0.7-0.7C760.7,729.6,760.4,729.4,760,729.4z M758.7,690.3l0.2,4.2h-15.4l0.2-4.2H758.7z M742.9,709.1l0.4-11.6
		h15.6l0.4,11.6c0.1,1.7-0.8,3-1.6,3.8c-1.6,1.6-4.1,2.6-6.7,2.6c-2.6,0-5.1-1-6.7-2.6C743.7,712.1,742.8,710.8,742.9,709.1z"/>
</g>
<title>Icon</title>
<desc>Created with Sketch.</desc>
<path class="st0" d="M883.6,620.2c-0.7,0-1.3,0.1-2,0.2l-1.3-4.9l-1.1-11.1c-0.1-0.7-0.7-1.3-1.4-1.3l-5.8-0.2l-2.9-2.4
	c-0.6-0.5-1.6-0.5-2.1,0.2c-0.5,0.6-0.5,1.6,0.2,2.1l3.3,2.8c0.3,0.2,0.6,0.3,0.9,0.4l5,0.2l0.8,8.2h-21.9l-2.8-5.7h5.3
	c0.8,0,1.5-0.7,1.5-1.5c0-0.8-0.7-1.5-1.5-1.5h-12.4c-0.8,0-1.5,0.7-1.5,1.5c0,0.8,0.7,1.5,1.5,1.5h3.8l3.6,7.5l-2.9,5.2
	c-1.6-0.7-3.4-1-5.2-1c-7.5,0-13.7,6.1-13.7,13.7c0,7.5,6.1,13.7,13.7,13.7c7,0,12.9-5.3,13.6-12.2h0.9c0.8,1.2,2.2,2,3.7,2
	c2.5,0,4.5-2,4.5-4.5c0-0.7-0.1-1.3-0.4-1.8l11-12.3l0.6,2.3c-5.1,2-8.8,6.9-8.8,12.8c0,7.5,6.1,13.7,13.7,13.7s13.7-6.1,13.7-13.7
	C897.3,626.3,891.2,620.2,883.6,620.2z M854.5,619.3l5.2,10.7c-0.6,0.7-1,1.5-1.1,2.4h-0.2c-0.4-4-2.6-7.5-5.7-9.7L854.5,619.3z
	 M855.3,632.4h-8l3.9-7C853.3,627,854.9,629.5,855.3,632.4z M844.7,644.6c-5.9,0-10.7-4.8-10.7-10.7c0-5.9,4.8-10.7,10.7-10.7
	c1.3,0,2.6,0.3,3.8,0.7l-5.1,9.3c-0.3,0.5-0.2,1,0,1.5c0.3,0.5,0.8,0.7,1.3,0.7h10.6C854.6,640.6,850.1,644.6,844.7,644.6z
	 M863,634.4c-0.8,0-1.5-0.7-1.5-1.5c0-0.8,0.7-1.5,1.5-1.5s1.5,0.7,1.5,1.5C864.5,633.7,863.8,634.4,863,634.4z M865,628.9
	c-0.6-0.3-1.3-0.5-2-0.5c-0.3,0-0.5,0-0.7,0.1l-5.5-11.2h18.7L865,628.9z M883.6,644.6c-5.9,0-10.7-4.8-10.7-10.7
	c0-4.4,2.7-8.2,6.6-9.9l2.7,10.2c0.2,0.7,0.8,1.1,1.5,1.1c0.1,0,0.3,0,0.4,0c0.8-0.2,1.3-1,1.1-1.8l-2.7-10.2c0.4,0,0.8-0.1,1.2-0.1
	c5.9,0,10.7,4.8,10.7,10.7C894.3,639.8,889.5,644.6,883.6,644.6z"/>
<path class="st0" d="M1976.6,704.2c-0.7,0-1.3,0.1-2,0.2l-1.3-4.9l-1.1-11.1c-0.1-0.7-0.7-1.3-1.4-1.3l-5.8-0.2l-2.9-2.4
	c-0.6-0.5-1.6-0.5-2.1,0.2c-0.5,0.6-0.5,1.6,0.2,2.1l3.3,2.8c0.3,0.2,0.6,0.3,0.9,0.4l5,0.2l0.8,8.2h-21.9l-2.8-5.7h5.3
	c0.8,0,1.5-0.7,1.5-1.5s-0.7-1.5-1.5-1.5h-12.4c-0.8,0-1.5,0.7-1.5,1.5s0.7,1.5,1.5,1.5h3.8l3.6,7.5l-2.9,5.2c-1.6-0.7-3.4-1-5.2-1
	c-7.5,0-13.7,6.1-13.7,13.7c0,7.5,6.1,13.7,13.7,13.7c7,0,12.9-5.3,13.6-12.2h0.9c0.8,1.2,2.2,2,3.7,2c2.5,0,4.5-2,4.5-4.5
	c0-0.7-0.1-1.3-0.4-1.8l11-12.3l0.6,2.3c-5.1,2-8.8,6.9-8.8,12.8c0,7.5,6.1,13.7,13.7,13.7s13.7-6.1,13.7-13.7
	C1990.3,710.3,1984.2,704.2,1976.6,704.2z M1947.5,703.3l5.2,10.7c-0.6,0.7-1,1.5-1.1,2.4h-0.2c-0.4-4-2.6-7.5-5.7-9.7L1947.5,703.3
	z M1948.3,716.4h-8l3.9-7C1946.3,711,1947.9,713.5,1948.3,716.4z M1937.7,728.6c-5.9,0-10.7-4.8-10.7-10.7c0-5.9,4.8-10.7,10.7-10.7
	c1.3,0,2.6,0.3,3.8,0.7l-5.1,9.3c-0.3,0.5-0.2,1,0,1.5c0.3,0.5,0.8,0.7,1.3,0.7h10.6C1947.6,724.6,1943.1,728.6,1937.7,728.6z
	 M1956,718.4c-0.8,0-1.5-0.7-1.5-1.5c0-0.8,0.7-1.5,1.5-1.5s1.5,0.7,1.5,1.5C1957.5,717.7,1956.8,718.4,1956,718.4z M1958,712.9
	c-0.6-0.3-1.3-0.5-2-0.5c-0.3,0-0.5,0-0.7,0.1l-5.5-11.2h18.7L1958,712.9z M1976.6,728.6c-5.9,0-10.7-4.8-10.7-10.7
	c0-4.4,2.7-8.2,6.6-9.9l2.7,10.2c0.2,0.7,0.8,1.1,1.5,1.1c0.1,0,0.3,0,0.4,0c0.8-0.2,1.3-1,1.1-1.8l-2.7-10.2c0.4,0,0.8-0.1,1.2-0.1
	c5.9,0,10.7,4.8,10.7,10.7C1987.3,723.8,1982.5,728.6,1976.6,728.6z"/>
<title>Icon</title>
<desc>Created with Sketch.</desc>
<path class="st0" d="M1253.7,544.3c-6.9-6.9-20-6.3-33.3,1.6l0,0l-0.1,0.1l-6.5,4.6c-0.2,0.1-0.3,0.1-0.4,0.2
	c-0.2,0.2-0.4,0.3-0.6,0.5c0,0,0,0-0.1,0.1c-1.6,1.3-3.2,2.8-4.8,4.3l0,0c-0.7,0.7-1.4,1.4-2,2.1c0,0,0,0-0.1,0.1c0,0,0,0-0.1,0.1
	c-0.1,0.1-0.1,0.1-0.1,0.2l-4.5,5.5l-0.1,0.1c0,0,0,0,0,0.1c-1.5,2.1-2.9,4.4-4.2,6.6v0.1c0,0.1-0.1,0.1-0.1,0.2
	c0,0.1-0.1,0.2-0.1,0.3l-2.5,5.3c0,0.1-0.1,0.2-0.1,0.3c0,0.1-0.1,0.2-0.1,0.2c-3.8,10.3-2.9,19.3,2.5,24.7
	c3.2,3.2,7.6,4.8,12.9,4.8c2.5,0,5.2-0.4,8-1.1c8.5-2.2,17.4-7.6,24.9-15.2c7.6-7.6,13-16.4,15.2-24.9
	C1259.7,556.5,1258.4,549,1253.7,544.3z M1223.1,549.1c4.8,0.8,9.2,2.2,12.8,4.1c3.5,1.8,8.5,6,8.5,8.5c0,0.9-0.7,1.6-1.6,1.6
	c-0.5,0-0.8-0.2-1-0.3c-0.4-0.3-0.7-0.8-1.1-1.3c-0.7-1-1.6-2.3-3.8-3.7c-4-2.7-9.2-4.6-15.1-5.8
	C1222.6,551.4,1223.1,550.3,1223.1,549.1z M1209.6,560.6c7.2,0.5,13.8,2.2,18.9,4.8c3.5,1.8,8.5,6,8.5,8.5c0,0.9-0.7,1.6-1.6,1.6
	c-0.5,0-0.8-0.2-1-0.3c-0.4-0.3-0.7-0.8-1.1-1.3c-0.7-1-1.6-2.3-3.8-3.7c-5.1-3.4-12.2-5.7-20.1-6.6c0.3-0.6,0.4-1.2,0.4-1.9
	C1209.7,561.3,1209.7,560.9,1209.6,560.6z M1254.5,564.5c-2.1,8-7.2,16.4-14.4,23.6c-7.2,7.2-15.6,12.3-23.6,14.4
	c-7.7,2-14.1,1-18.1-2.9c-4.4-4.4-5.1-11.8-2.2-20.6h0.5c0.5,0,0.9-0.1,1.3-0.2c7.3,0.9,14,3,18.6,6.1c1.7,1.1,2.4,2.1,3,3
	c0.5,0.6,0.9,1.3,1.7,1.9c0.8,0.6,1.8,1,2.9,1c2.5,0,4.6-2.1,4.6-4.6c0-4.8-7.5-9.8-10.1-11.2c-5-2.6-11.3-4.3-18.2-5
	c0.7-1.2,1.5-2.5,2.4-3.7h2.2c0.1,0,0.2,0,0.3,0c8.9,0.5,16.9,2.8,22.3,6.4c1.7,1.1,2.4,2.1,3,3c0.5,0.6,0.9,1.3,1.7,1.9
	c0.8,0.6,1.8,1,2.9,1c2.5,0,4.6-2.1,4.6-4.6c0-4.8-7.5-9.8-10.1-11.2c-5.3-2.8-12.2-4.6-19.6-5.1c1.2-1.2,2.5-2.4,3.8-3.5
	c8.4,0.6,16.1,2.9,21.2,6.3c1.7,1.1,2.4,2.1,3,3c0.5,0.6,0.9,1.3,1.7,1.9c0.8,0.6,1.8,1,2.9,1c2.5,0,4.6-2.1,4.6-4.6
	c0-4.8-7.5-9.8-10.1-11.2c-3.4-1.8-7.4-3.1-11.8-4c10.7-5.3,20.7-5.4,26-0.1C1255.5,550.3,1256.5,556.8,1254.5,564.5z M1201.2,573
	c6.1,0.7,11.8,2.3,16.1,4.6c3.5,1.8,8.5,6,8.5,8.5c0,0.9-0.7,1.6-1.6,1.6c-0.4,0-0.7-0.1-1-0.3c-0.4-0.3-0.7-0.8-1.1-1.3
	c-0.7-1-1.6-2.3-3.8-3.7c-4.5-3-10.5-5.1-17.3-6.2c0.2-0.6,0.4-1.2,0.4-1.8C1201.4,573.9,1201.3,573.4,1201.2,573z"/>
<title>Icon</title>
<desc>Created with Sketch.</desc>
<path class="st0" d="M1045,556.2l-27.6-12.8c-1.6-0.8-3.4-0.8-4.8-0.2l-28.1,13.2c-0.9,0.4-1.5,1.4-1.5,2.6c0,1.3,0.7,2.4,1.8,2.9
	l4.4,2c-0.5,2.2-0.5,4.8-0.4,7.5c0,1.2,0.1,2.4,0.1,3.6c-1.8,0.6-3.1,2.2-3.1,4.2c0,1.8,1,3.3,2.5,4c0,0.1,0,0.1,0,0.2
	c-0.1,5.8-2.4,10.7-5.9,12.7c-0.4,0.3-0.7,0.7-0.7,1.2s0.2,1,0.6,1.3l5.2,3.8c0.3,0.2,0.6,0.3,0.9,0.3c0.4,0,0.7-0.1,1-0.4
	c4.4-4,3.6-7.9,2.8-12c-0.4-2-0.9-4.3-0.8-6.9c1.8-0.5,3.2-2.1,3.3-4.1c1.1,5.6,9.7,9.8,20.6,9.8c11.6,0,20.7-4.8,20.7-10.9v-12
	l9.3-4.4c0.9-0.4,1.5-1.4,1.5-2.6C1046.8,557.8,1046.1,556.7,1045,556.2z M988.2,599.1l-2.5-1.8c1.5-1.3,2.8-3.1,3.7-5.1
	C990,595,990.1,597,988.2,599.1z M990.2,580.5c-0.8,0-1.4-0.6-1.4-1.4c0-0.8,0.6-1.4,1.4-1.4s1.4,0.6,1.4,1.4
	C991.6,579.9,991,580.5,990.2,580.5z M991.9,575.1c0-1.3,0-2.6-0.1-3.8c-0.1-2.3-0.1-4.4,0.2-6.1l2.5,1.2c0,0.1,0,0.2,0,0.3v11.5
	v0.1C994.2,576.8,993.2,575.6,991.9,575.1z M1032.9,578.1c0,4.7-9.3,7.9-17.7,7.9s-17.7-3.2-17.7-7.9v-10.4l14.9,7
	c1.6,0.7,3.5,0.8,4.8,0.2l15.7-7.4L1032.9,578.1L1032.9,578.1z M1015.9,572.2c-0.4,0.2-1.4,0.2-2.2-0.2l-17.8-8.4l19-3.9
	c0.8-0.2,1.3-1,1.2-1.8c-0.2-0.8-1-1.3-1.8-1.2l-23,4.7l-5.2-2.3c0,0,0-0.1-0.1-0.2l27.9-13.1c0.5-0.2,1.5-0.2,2.2,0.2l27.6,12.8
	c0,0,0,0.1,0.1,0.2L1015.9,572.2z"/>
<title>Icon</title>
<desc>Created with Sketch.</desc>
<path class="st0" d="M2239,647.2l-27.6-12.8c-1.6-0.8-3.4-0.8-4.8-0.2l-28.1,13.2c-0.9,0.4-1.5,1.4-1.5,2.6c0,1.3,0.7,2.4,1.8,2.9
	l4.4,2c-0.5,2.2-0.5,4.8-0.4,7.5c0,1.2,0.1,2.4,0.1,3.6c-1.8,0.6-3.1,2.2-3.1,4.2c0,1.8,1,3.3,2.5,4c0,0.1,0,0.1,0,0.2
	c-0.1,5.8-2.4,10.7-5.9,12.7c-0.4,0.3-0.7,0.7-0.7,1.2s0.2,1,0.6,1.3l5.2,3.8c0.3,0.2,0.6,0.3,0.9,0.3c0.4,0,0.7-0.1,1-0.4
	c4.4-4,3.6-7.9,2.8-12c-0.4-2-0.9-4.3-0.8-6.9c1.8-0.5,3.2-2.1,3.3-4.1c1.1,5.6,9.7,9.8,20.6,9.8c11.6,0,20.7-4.8,20.7-10.9v-12
	l9.3-4.4c0.9-0.4,1.5-1.4,1.5-2.6C2240.8,648.8,2240.1,647.7,2239,647.2z M2182.2,690.1l-2.5-1.8c1.5-1.3,2.8-3.1,3.7-5.1
	C2184,686,2184.1,688,2182.2,690.1z M2184.2,671.5c-0.8,0-1.4-0.6-1.4-1.4c0-0.8,0.6-1.4,1.4-1.4s1.4,0.6,1.4,1.4
	C2185.6,670.9,2185,671.5,2184.2,671.5z M2185.9,666.1c0-1.3,0-2.6-0.1-3.8c-0.1-2.3-0.1-4.4,0.2-6.1l2.5,1.2c0,0.1,0,0.2,0,0.3
	v11.5v0.1C2188.2,667.8,2187.2,666.6,2185.9,666.1z M2226.9,669.1c0,4.7-9.3,7.9-17.7,7.9s-17.7-3.2-17.7-7.9v-10.4l14.9,7
	c1.6,0.7,3.5,0.8,4.8,0.2l15.7-7.4L2226.9,669.1L2226.9,669.1z M2209.9,663.2c-0.4,0.2-1.4,0.2-2.2-0.2l-17.8-8.4l19-3.9
	c0.8-0.2,1.3-1,1.2-1.8c-0.2-0.8-1-1.3-1.8-1.2l-23,4.7l-5.2-2.3c0,0,0-0.1-0.1-0.2l27.9-13.1c0.5-0.2,1.5-0.2,2.2,0.2l27.6,12.8
	c0,0,0,0.1,0.1,0.2L2209.9,663.2z"/>
<title>Icon</title>
<desc>Created with Sketch.</desc>
<g>
	<path class="st0" d="M956.1,721.6c-1.9-1.5-4.5-1.8-6.8-1.4c0.1-1.2,0.2-2.4,0.1-3.5c-0.1-0.8-0.7-1.4-1.5-1.4h-46.3
		c-0.8,0-1.4,0.6-1.5,1.4c-0.6,6.7,3.7,19.2,11.1,25.8h-12c-0.4,0-0.9,0.2-1.1,0.5c-0.3,0.3-0.4,0.8-0.3,1.2
		c0.4,2.9,8.1,8.9,13.5,8.9h26.9c3.2,0,6.7-2.1,8.5-3.4c1.1-0.8,4.7-3.4,5-5.5c0.1-0.4-0.1-0.9-0.3-1.2c-0.3-0.3-0.7-0.5-1.1-0.5
		h-12c1.6-1.5,3.1-3.3,4.4-5.2c0.1,0,0.3-0.1,0.4-0.2c2.4-1.4,4.9-2.3,7.1-3.1c3.9-1.4,7.2-2.6,7.9-6
		C958.7,725.3,957.9,723,956.1,721.6z M938.3,750.1h-26.9c-3.1,0-7.1-2.7-9.2-4.6h45.2C945.2,747.4,941.2,750.1,938.3,750.1z
		 M933.5,742.3c-0.1,0-0.1,0.1-0.2,0.2h-16.9c-0.1-0.1-0.1-0.1-0.2-0.2c-7.8-4.3-12.9-16.8-13-24h43.4
		C946.4,726,940.4,738.5,933.5,742.3z M955.2,727.4c-0.3,1.6-2.5,2.5-6,3.7c-1.2,0.4-2.5,0.9-3.8,1.5c1.5-3,2.7-6.2,3.4-9.2
		c1.9-0.6,4.2-0.4,5.5,0.5C955.2,724.7,955.5,725.8,955.2,727.4z"/>
	<path class="st0" d="M921.5,704.8c0.2,1.9,1.2,3.6,2.8,4.9c0.3,0.2,0.6,0.3,0.9,0.3c0.5,0,0.9-0.2,1.2-0.6c0.5-0.7,0.4-1.6-0.3-2.1
		c-1-0.7-1.5-1.7-1.7-2.8c-0.1-1.1,0.3-2.4,1-3.2c2.2-2.6,2.9-6.8-0.8-10.1c-0.6-0.5-1.6-0.5-2.1,0.1s-0.5,1.6,0.1,2.1
		c2.3,2,1.8,4.4,0.5,5.9C921.9,700.8,921.3,702.9,921.5,704.8z"/>
	<path class="st0" d="M932.5,710.6c0.3,0.3,0.6,0.4,1,0.4s0.8-0.2,1.1-0.5c0.6-0.6,0.5-1.6-0.1-2.1c-1.7-1.5-1.2-3.9-0.4-5
		c1.7-2.3,2.2-5.9-0.6-8.8c-0.6-0.6-1.5-0.6-2.1,0c-0.6,0.6-0.6,1.5,0,2.1c1.6,1.7,1.2,3.7,0.3,4.9
		C929.9,704.1,929.7,708.1,932.5,710.6z"/>
	<path class="st0" d="M916.3,710.6c0.3,0.3,0.6,0.4,1,0.4s0.8-0.2,1.1-0.5c0.6-0.6,0.5-1.6-0.1-2.1c-1.7-1.5-1.2-3.9-0.4-5
		c1.7-2.3,2.2-5.9-0.6-8.8c-0.6-0.6-1.5-0.6-2.1,0c-0.6,0.6-0.6,1.5,0,2.1c1.6,1.7,1.2,3.7,0.3,4.9
		C913.6,704.1,913.5,708.1,916.3,710.6z"/>
</g>
<g>
	<path class="st0" d="M2129.1,709.6c-1.9-1.5-4.5-1.8-6.8-1.4c0.1-1.2,0.2-2.4,0.1-3.5c-0.1-0.8-0.7-1.4-1.5-1.4h-46.3
		c-0.8,0-1.4,0.6-1.5,1.4c-0.6,6.7,3.7,19.2,11.1,25.8h-12c-0.4,0-0.9,0.2-1.1,0.5c-0.3,0.3-0.4,0.8-0.3,1.2
		c0.4,2.9,8.1,8.9,13.5,8.9h26.9c3.2,0,6.7-2.1,8.5-3.4c1.1-0.8,4.7-3.4,5-5.5c0.1-0.4-0.1-0.9-0.3-1.2c-0.3-0.3-0.7-0.5-1.1-0.5
		h-12c1.6-1.5,3.1-3.3,4.4-5.2c0.1,0,0.3-0.1,0.4-0.2c2.4-1.4,4.9-2.3,7.1-3.1c3.9-1.4,7.2-2.6,7.9-6
		C2131.7,713.3,2130.9,711,2129.1,709.6z M2111.3,738.1h-26.9c-3.1,0-7.1-2.7-9.2-4.6h45.2C2118.2,735.4,2114.2,738.1,2111.3,738.1z
		 M2106.5,730.3c-0.1,0-0.1,0.1-0.2,0.2h-16.9c-0.1-0.1-0.1-0.1-0.2-0.2c-7.8-4.3-12.9-16.8-13-24h43.4
		C2119.4,714,2113.4,726.5,2106.5,730.3z M2128.2,715.4c-0.3,1.6-2.5,2.5-6,3.7c-1.2,0.4-2.5,0.9-3.8,1.5c1.5-3,2.7-6.2,3.4-9.2
		c1.9-0.6,4.2-0.4,5.5,0.5C2128.2,712.7,2128.5,713.8,2128.2,715.4z"/>
	<path class="st0" d="M2094.5,692.8c0.2,1.9,1.2,3.6,2.8,4.9c0.3,0.2,0.6,0.3,0.9,0.3c0.5,0,0.9-0.2,1.2-0.6
		c0.5-0.7,0.4-1.6-0.3-2.1c-1-0.7-1.5-1.7-1.7-2.8c-0.1-1.1,0.3-2.4,1-3.2c2.2-2.6,2.9-6.8-0.8-10.1c-0.6-0.5-1.6-0.5-2.1,0.1
		s-0.5,1.6,0.1,2.1c2.3,2,1.8,4.4,0.5,5.9C2094.9,688.8,2094.3,690.9,2094.5,692.8z"/>
	<path class="st0" d="M2105.5,698.6c0.3,0.3,0.6,0.4,1,0.4s0.8-0.2,1.1-0.5c0.6-0.6,0.5-1.6-0.1-2.1c-1.7-1.5-1.2-3.9-0.4-5
		c1.7-2.3,2.2-5.9-0.6-8.8c-0.6-0.6-1.5-0.6-2.1,0c-0.6,0.6-0.6,1.5,0,2.1c1.6,1.7,1.2,3.7,0.3,4.9
		C2102.9,692.1,2102.7,696.1,2105.5,698.6z"/>
	<path class="st0" d="M2089.3,698.6c0.3,0.3,0.6,0.4,1,0.4s0.8-0.2,1.1-0.5c0.6-0.6,0.5-1.6-0.1-2.1c-1.7-1.5-1.2-3.9-0.4-5
		c1.7-2.3,2.2-5.9-0.6-8.8c-0.6-0.6-1.5-0.6-2.1,0c-0.6,0.6-0.6,1.5,0,2.1c1.6,1.7,1.2,3.7,0.3,4.9
		C2086.6,692.1,2086.5,696.1,2089.3,698.6z"/>
</g>
<title>Icon</title>
<desc>Created with Sketch.</desc>
<path class="st0" d="M1605.5,736.2l-4.2-4.2l4-4c0.3-0.3,0.4-0.7,0.4-1.1c0-0.4-0.2-0.8-0.4-1.1l-4.5-4.5l3.7-3.7
	c0.3-0.3,0.4-0.7,0.4-1.1s-0.2-0.8-0.4-1.1l-5.3-5.3c-0.6-0.6-1.5-0.6-2.1,0l-11.2,11.2l-15.7-15.7l11.2-11.2c0.6-0.6,0.6-1.5,0-2.1
	l-5.3-5.3c-0.3-0.3-0.7-0.4-1.1-0.4s-0.8,0.2-1.1,0.4l-3.7,3.7l-4.5-4.5c-0.6-0.6-1.5-0.6-2.1,0l-4,4l-4.2-4.2
	c-0.6-0.6-1.5-0.6-2.1,0l-10.1,10.1c-0.6,0.6-0.6,1.5,0,2.1l4.2,4.2l-4,4c-0.3,0.3-0.4,0.7-0.4,1.1s0.2,0.8,0.4,1.1l4.5,4.5
	l-3.7,3.7c-0.6,0.6-0.6,1.5,0,2.1l5.3,5.3c0.3,0.3,0.7,0.4,1.1,0.4s0.8-0.1,1.1-0.4l11.2-11.2l15.7,15.7l-11.2,11.2
	c-0.3,0.3-0.4,0.7-0.4,1.1s0.2,0.8,0.4,1.1l5.3,5.3c0.3,0.3,0.7,0.4,1.1,0.4s0.8-0.1,1.1-0.4l3.7-3.7l4.5,4.5
	c0.3,0.3,0.7,0.4,1.1,0.4s0.8-0.2,1.1-0.4l4-4l4.2,4.2c0.3,0.3,0.7,0.4,1.1,0.4s0.8-0.1,1.1-0.4l10.1-10.1c0.3-0.3,0.4-0.7,0.4-1.1
	C1606.2,736.8,1605.8,736.5,1605.5,736.2z M1554.5,689.4l3.1,3.1l-8,8l-3.1-3.1L1554.5,689.4z M1564.8,689.6l3.1,3.1l-18.2,18.2
	l-3.1-3.1L1564.8,689.6z M1550.6,721.2l-3.1-3.1l27.6-27.6l3.1,3.1L1550.6,721.2z M1565.1,711.2l3.1-3.1l15.6,15.6l-3.1,3.1
	L1565.1,711.2z M1573.7,744.3l-3.1-3.1l11.1-11.1c0,0,0.1,0,0.1-0.1l5.3-5.3c0.1-0.1,0.1-0.1,0.2-0.2l11-11l3.1,3.1L1573.7,744.3z
	 M1584,745.1l-3.1-3.1l18.2-18.2l3.1,3.1l-7.1,7.1l-7.1,7.1l0,0L1584,745.1z M1594.3,745.3l-3.1-3.1l5.7-5.7l2.3-2.3l3.1,3.1
	L1594.3,745.3z"/>
<title>Icon</title>
<desc>Created with Sketch.</desc>
<path class="st0" d="M2301.5,582.2l-4.2-4.2l4-4c0.3-0.3,0.4-0.7,0.4-1.1c0-0.4-0.2-0.8-0.4-1.1l-4.5-4.5l3.7-3.7
	c0.3-0.3,0.4-0.7,0.4-1.1s-0.2-0.8-0.4-1.1l-5.3-5.3c-0.6-0.6-1.5-0.6-2.1,0l-11.2,11.2l-15.7-15.7l11.2-11.2c0.6-0.6,0.6-1.5,0-2.1
	l-5.3-5.3c-0.3-0.3-0.7-0.4-1.1-0.4s-0.8,0.2-1.1,0.4l-3.7,3.7l-4.5-4.5c-0.6-0.6-1.5-0.6-2.1,0l-4,4l-4.2-4.2
	c-0.6-0.6-1.5-0.6-2.1,0l-10.1,10.1c-0.6,0.6-0.6,1.5,0,2.1l4.2,4.2l-4,4c-0.3,0.3-0.4,0.7-0.4,1.1s0.2,0.8,0.4,1.1l4.5,4.5
	l-3.7,3.7c-0.6,0.6-0.6,1.5,0,2.1l5.3,5.3c0.3,0.3,0.7,0.4,1.1,0.4c0.4,0,0.8-0.1,1.1-0.4l11.2-11.2l15.7,15.7l-11.2,11.2
	c-0.3,0.3-0.4,0.7-0.4,1.1s0.2,0.8,0.4,1.1l5.3,5.3c0.3,0.3,0.7,0.4,1.1,0.4c0.4,0,0.8-0.1,1.1-0.4l3.7-3.7l4.5,4.5
	c0.3,0.3,0.7,0.4,1.1,0.4c0.4,0,0.8-0.2,1.1-0.4l4-4l4.2,4.2c0.3,0.3,0.7,0.4,1.1,0.4c0.4,0,0.8-0.1,1.1-0.4l10.1-10.1
	c0.3-0.3,0.4-0.7,0.4-1.1C2302.2,582.8,2301.8,582.5,2301.5,582.2z M2250.5,535.4l3.1,3.1l-8,8l-3.1-3.1L2250.5,535.4z
	 M2260.8,535.6l3.1,3.1l-18.2,18.2l-3.1-3.1L2260.8,535.6z M2246.6,567.2l-3.1-3.1l27.6-27.6l3.1,3.1L2246.6,567.2z M2261.1,557.2
	l3.1-3.1l15.6,15.6l-3.1,3.1L2261.1,557.2z M2269.7,590.3l-3.1-3.1l11.1-11.1c0,0,0.1,0,0.1-0.1l5.3-5.3c0.1-0.1,0.1-0.1,0.2-0.2
	l11-11l3.1,3.1L2269.7,590.3z M2280,591.1l-3.1-3.1l18.2-18.2l3.1,3.1l-7.1,7.1l-7.1,7.1l0,0L2280,591.1z M2290.3,591.3l-3.1-3.1
	l5.7-5.7l2.3-2.3l3.1,3.1L2290.3,591.3z"/>
<title>Icon</title>
<desc>Created with Sketch.</desc>
<g>
	<path class="st0" d="M1354.9,714c-0.3-0.3-0.7-0.5-1.1-0.5h-2.8l0,0c0-8-3-14.8-8.7-19.5c-4.3-3.6-9.9-5.8-16-6.3
		c0.7-0.7,1.1-1.7,1.1-2.8c0-2.3-1.8-4.1-4-4.1c-2.2,0-4,1.8-4,4.1c0,1.1,0.4,2.1,1.1,2.8c-6.1,0.5-11.6,2.7-16,6.3
		c-5.7,4.7-8.7,11.5-8.7,19.5l0,0h-2.7c-0.4,0-0.8,0.2-1.1,0.5c-0.3,0.3-0.4,0.8-0.4,1.2c0.7,5.4,9.3,6.9,12.4,7h1.6
		c-0.1,0.2-0.1,0.3-0.1,0.5c-0.3,1.7,0.6,3.5,2.4,5l7.2,5.8c0.1,0.1,0.2,0.2,0.5,0.4c5.6,4.1,7.4,6.5,8,7.8l-2.2,0.6
		c-0.8,0.2-1.3,1.1-1,1.9c0.2,0.7,0.8,1.1,1.4,1.1c0.1,0,0.3,0,0.4-0.1l18.4-5.3c0.8-0.2,1.3-1.1,1-1.9c-0.2-0.8-1.1-1.3-1.9-1
		l-3.5,1c0.1-0.4,0.2-0.7,0.3-1.1c0.4-1.7,0.9-3.4,2.9-6.7c0.3-0.6,1.1-1.4,1.8-2.3c1.1-1.3,2.1-2.5,2.6-3.4
		c0.6-0.9,0.9-1.7,0.8-2.4c3.8-0.5,9.9-2.3,10.4-6.8C1355.3,714.8,1355.2,714.3,1354.9,714z M1323.5,683.8c0.5,0,1,0.5,1,1.1
		c0,0.6-0.4,1.1-1,1.1c-0.5,0-1-0.5-1-1.1C1322.6,684.3,1323,683.8,1323.5,683.8z M1299,713.5c0-15.8,12.7-23,24.5-23
		s24.5,7.2,24.5,23l0,0H1299L1299,713.5z M1341.4,723.1c-0.2,0.6-1.4,1.9-2.2,2.8c-0.8,1-1.6,1.9-2.1,2.6c-2.3,3.7-2.8,5.7-3.3,7.5
		c-0.1,0.5-0.3,1-0.4,1.5c-0.1,0.4-0.1,0.8,0.1,1.2l-6.9,2c-1-2.5-3.9-5.5-9.1-9.3c-0.2-0.1-0.3-0.2-0.4-0.3l-7.2-5.8
		c-1.1-0.9-1.4-1.7-1.3-2.1c0-0.2,0.1-0.3,0.3-0.4c0.4-0.1,1,0,1.7,0.7l1.8,1.7l0,0l0,0h0.1l5.5,4.6c0.6,0.5,1.6,0.4,2.1-0.2
		c0.5-0.6,0.4-1.6-0.2-2.1l-5.4-4.5l0,0l0,0c-0.1-0.1-0.2-0.2-0.2-0.2c0-0.1,0.2-0.3,0.6-0.5c0.3-0.1,1.2-0.2,2,0.6l1.5,1.5l0,0l0,0
		l3.6,3.7c0.3,0.3,0.7,0.5,1.1,0.5c0.4,0,0.8-0.1,1-0.4c0.6-0.6,0.6-1.5,0-2.1l-3.5-3.6c0.2-0.1,0.6-0.2,1.1-0.3
		c0.4,0,1.5,0,2.3,0.8c1,1,1.7,1.9,2.4,2.8c1.9,2.4,3.7,4.6,7.9,2.4c1.4-0.7,2-1.7,2.6-2.7c0.2-0.3,0.4-0.6,0.6-1
		c0.7-1,2.7-1.6,3.9-1.7C1341.4,722.9,1341.4,723,1341.4,723.1z M1327.3,722.2h8.4c-0.2,0.2-0.4,0.4-0.5,0.6
		c-0.3,0.4-0.5,0.8-0.7,1.2c-0.6,0.9-0.8,1.3-1.5,1.7c-2,1.1-2.3,0.8-4.2-1.6C1328.4,723.5,1327.9,722.9,1327.3,722.2z
		 M1342.8,719.2h-38.6c-2.8-0.1-6.6-1.1-8.4-2.7h55.4C1349.4,718.1,1345.6,719.1,1342.8,719.2z"/>
	<path class="st0" d="M1345.5,708.9c-2.2-11.7-12.8-16.9-22.3-16.9l0,0c-0.8,0-1.5,0.7-1.5,1.5s0.7,1.5,1.5,1.5
		c8.2,0,17.4,4.5,19.3,14.5c0.1,0.7,0.8,1.2,1.5,1.2c0.1,0,0.2,0,0.3,0C1345.1,710.5,1345.7,709.7,1345.5,708.9z"/>
</g>
<title>Icon</title>
<desc>Created with Sketch.</desc>
<path class="st0" d="M1840.1,564.2c0.5-6.8-3.4-12.6-9.1-14.2c-0.8-7.2-6.3-12.5-13.1-12.5c-7.8,0-14.7,7-15.3,15.6
	c0,0.2,0,0.3,0,0.5c-3.2-2-6.3-7-7.6-10.5c-0.2-0.6-0.8-1-1.5-1c-0.6,0-1.2,0.4-1.4,1.1c-2.1,6.9-5.7,11.3-11.1,13.6
	c-0.5,0.2-0.9,0.7-0.9,1.3c0,0.6,0.2,1.1,0.7,1.4c1.8,1,3.6,1.9,5.4,2.5c-2.4,4-4.9,6.3-8.4,7.7c-0.5,0.2-0.9,0.7-0.9,1.3
	s0.2,1.1,0.7,1.4c1.8,1.1,3.8,2,5.9,2.7c-2.3,3.3-4.6,5.7-8.9,7.1c-0.6,0.2-0.9,0.7-1,1.2c-0.1,0.6,0.2,1.1,0.7,1.5
	c4.5,2.8,9.8,4.4,15.3,4.9v6.8c-5.6,0.9-10.2,2.3-13.4,4.1c-0.7,0.4-1,1.3-0.6,2s1.3,1,2,0.6c5.5-3.1,16.5-5,28.7-5
	c12.6,0,24.1,2.1,29.3,5.3c0.2,0.2,0.5,0.2,0.8,0.2c0.5,0,1-0.3,1.3-0.7c0.4-0.7,0.2-1.6-0.5-2.1c-3.5-2.2-9.4-3.9-16.5-4.9V587
	c1.2,0.6,2.7,0.9,4.1,0.9c1.1,0,2.2-0.2,3.3-0.5c3.1-1,5.4-3.4,6.2-6.5c0.4-1.6,0.4-3.4,0-5.4
	C1837.6,572.8,1839.8,568.7,1840.1,564.2z M1787.1,574.8c0.3-0.4,0.3-0.9,0.1-1.4c-0.2-0.5-0.6-0.8-1-0.9c-1.6-0.4-3.2-0.9-4.6-1.6
	c3.2-1.9,5.7-4.9,8.1-9.3c0.2-0.4,0.2-0.9,0.1-1.3c-0.2-0.4-0.6-0.7-1-0.9c-1.3-0.3-2.6-0.8-3.9-1.4c3.8-2.3,6.8-5.9,8.8-10.6
	c2,3.8,5.3,8.1,9,9.5c0,0.3,0.1,0.5,0.1,0.8c-6.6,4.5-8,13.9-5.4,20.5c1.4,3.6,3.7,5.8,6.3,7.1c-8.6,2.5-17.8,1.9-25.3-1.7
	C1782.4,581.6,1784.6,578.6,1787.1,574.8z M1792.5,589.8c0.2,0,0.5,0,0.7,0c0.8,0,1.5,0,2.3-0.1v5.9c-1,0.1-2,0.2-3,0.3V589.8z
	 M1798.5,595.4v-6c3.2-0.4,6.4-1.2,9.5-2.4c0.3-0.1,0.5-0.3,0.7-0.5c0.3,0,0.6,0,0.8,0c0.9,0,1.9-0.1,2.8-0.2c0,1.8-0.1,3.5-0.1,4.9
	c0,1.6-0.1,3-0.1,4.1c-1.9-0.1-3.9-0.2-5.8-0.2C1803.6,595.2,1801,595.2,1798.5,595.4z M1831.4,580.1c-0.8,2.9-3,4-4.3,4.5
	c-2.2,0.7-4.6,0.4-6.1-0.8c-0.1-0.1-0.2-0.2-0.4-0.2v-12.1c5-1.5,9.2-3.3,10.8-8.1c0.3-0.8-0.1-1.6-0.9-1.9s-1.6,0.1-1.9,0.9
	c-1.2,3.3-4.2,4.7-8.3,6.1c-1.5-4.4-0.1-13.6,2.1-17.8c0.4-0.7,0.1-1.6-0.6-2c-0.7-0.4-1.6-0.1-2,0.6c-1.2,2.1-2.1,5.2-2.6,8.4
	c-1.1-1.1-1.7-2.2-2-4c-0.1-0.8-0.9-1.4-1.7-1.3c-0.8,0.1-1.4,0.9-1.3,1.7c0.4,3.2,1.9,5,4.1,6.9c0.1,0.1,0.2,0.2,0.4,0.2
	c-0.3,3.4,0,6.6,0.9,8.9v25.8c-0.8-0.1-1.7-0.2-2.5-0.2c0-1.1,0-2.6,0.1-4.3c0.3-13.3,0.1-14.7-1.1-15.5c-1-0.7-2-1-2.8-1.3
	c-1.8-0.7-3-1.2-4.6-4.5c-0.4-0.7-1.3-1-2-0.7c-0.7,0.4-1,1.3-0.7,2c2.2,4.3,4.2,5.1,6.2,5.9c0.6,0.3,1.3,0.5,1.9,0.9
	c0.2,0.9,0.2,2.9,0.2,5.2c-8,1.8-11.1-3.6-12.1-6.1c-2.3-5.8-0.8-14.1,5.1-17.3c0.6-0.3,0.9-1.1,0.7-1.7c-0.4-1.5-0.6-3.1-0.5-4.8
	c0.5-7,6.1-12.8,12.3-12.8c5.5,0,9.9,4.6,10.2,10.8c0,0.7,0.6,1.3,1.3,1.4c4.9,0.8,8.2,5.6,7.8,11.2c-0.4,4.9-3.5,9.3-7.8,10.9
	c-0.8,0.3-1.2,1.2-0.9,1.9c0.3,0.8,1.2,1.2,1.9,0.9c0.4-0.1,0.8-0.3,1.1-0.5C1831.7,578.3,1831.6,579.2,1831.4,580.1z"/>
<title>Icon</title>
<desc>Created with Sketch.</desc>
<g>
	<path class="st0" d="M1632.2,580.2c-3.8,0-7,3.1-7,7c0,3.9,3.1,7,7,7s7-3.1,7-7C1639.2,583.3,1636.1,580.2,1632.2,580.2z
		 M1632.2,591.2c-2.2,0-4-1.8-4-4s1.8-4,4-4s4,1.8,4,4S1634.4,591.2,1632.2,591.2z"/>
	<path class="st0" d="M1653.3,580.2c-3.8,0-7,3.1-7,7c0,3.9,3.1,7,7,7s7-3.1,7-7C1660.3,583.3,1657.1,580.2,1653.3,580.2z
		 M1653.3,591.2c-2.2,0-4-1.8-4-4s1.8-4,4-4s4,1.8,4,4S1655.5,591.2,1653.3,591.2z"/>
	<path class="st0" d="M1667.3,552.5h-44.9l-4.5-14.6c-0.2-0.6-0.8-1.1-1.4-1.1h-11.1c-0.8,0-1.5,0.7-1.5,1.5s0.7,1.5,1.5,1.5h10
		l10,32.7c0.2,0.6,0.8,1.1,1.4,1.1h34.5c0.8,0,1.5-0.7,1.5-1.5c0-0.8-0.7-1.5-1.5-1.5h-33.4l-1.9-6.1h38.9c0.8,0,1.5-0.7,1.5-1.5
		s-0.7-1.5-1.5-1.5h-39.8l-1.8-6h43.9c0.8,0,1.5-0.7,1.5-1.5S1668.1,552.5,1667.3,552.5z"/>
</g>
<title>Icon</title>
<desc>Created with Sketch.</desc>
<g>
	<path class="st0" d="M1806.2,711.3h-5.7v-22.8c0-0.8-0.7-1.5-1.5-1.5s-1.5,0.7-1.5,1.5v22.8h-30v-22.8c0-0.8-0.7-1.5-1.5-1.5
		s-1.5,0.7-1.5,1.5v22.8h-13v-22.8c0-0.8-0.7-1.5-1.5-1.5s-1.5,0.7-1.5,1.5v22.8h-4.1c-0.8,0-1.5,0.7-1.5,1.5s0.7,1.5,1.5,1.5h61.7
		c0.8,0,1.5-0.7,1.5-1.5S1807,711.3,1806.2,711.3z"/>
	<path class="st0" d="M1751.2,684.1c2.3,0,4.5-0.9,6-2.5c1.6,1.6,3.7,2.5,6,2.5s4.5-0.9,6-2.5c1.6,1.6,3.7,2.5,6,2.5s4.5-0.9,6-2.5
		c1.6,1.6,3.7,2.5,6,2.5s4.5-0.9,6-2.5c1.6,1.6,3.7,2.5,6,2.5c4.6,0,8.4-3.8,8.4-8.4c0-0.5,0-1-0.1-1.5c0-0.1-0.1-0.2-0.1-0.3
		l-6.9-16.1c-0.2-0.6-0.8-0.9-1.4-0.9h-47.9c-0.6,0-1.1,0.4-1.4,0.9l-6.9,16.1c0,0.1-0.1,0.2-0.1,0.3c-0.1,0.5-0.1,1-0.1,1.5
		C1742.9,680.3,1746.6,684.1,1751.2,684.1z M1763.3,681.1c-1.9,0-3.6-1-4.6-2.6l3-18.6h7l-1,18.6c0,0.1,0,0.2,0,0.4
		C1766.7,680.2,1765,681.1,1763.3,681.1z M1775.3,681.1c-1.9,0-3.7-1-4.7-2.7l1-18.5h7l1,18.7c0,0.1,0,0.2,0,0.2
		C1778.7,680.2,1777,681.1,1775.3,681.1z M1787.3,681.1c-1.9,0-3.8-1.1-4.7-2.8l0,0l-1-18.4h7l3,18.9v0.1
		C1790.7,680.2,1789.1,681.1,1787.3,681.1z M1804.7,674.9c0,0.3,0.1,0.5,0.1,0.8c0,3-2.4,5.4-5.4,5.4c-1.9,0-3.8-1.1-4.7-2.8
		c0,0,0-0.1-0.1-0.1l-2.9-18.3h6.6L1804.7,674.9z M1745.9,674.9l6.4-15h6.2l-2.9,18.4c0,0.2,0,0.3,0,0.5c-1,1.5-2.7,2.3-4.4,2.3
		c-3,0-5.4-2.4-5.4-5.4C1745.9,675.4,1745.9,675.1,1745.9,674.9z"/>
	<path class="st0" d="M1759.5,696.2v4.5c0,0.8,0.7,1.5,1.5,1.5s1.5-0.7,1.5-1.5v-4.5c0-0.8-0.7-1.5-1.5-1.5
		S1759.5,695.3,1759.5,696.2z"/>
	<path class="st0" d="M1793.7,688.7c-0.6-0.6-1.5-0.6-2.1,0l-13.9,14.1c-0.6,0.6-0.6,1.5,0,2.1c0.3,0.3,0.7,0.4,1.1,0.4
		s0.8-0.1,1.1-0.4l13.9-14.1C1794.3,690.2,1794.3,689.3,1793.7,688.7z"/>
	<path class="st0" d="M1783.6,709.3c0.4,0,0.8-0.1,1.1-0.4l9.4-9.5c0.6-0.6,0.6-1.5,0-2.1c-0.6-0.6-1.5-0.6-2.1,0l-9.4,9.5
		c-0.6,0.6-0.6,1.5,0,2.1C1782.9,709.1,1783.2,709.3,1783.6,709.3z"/>
</g>
<title>Icon</title>
<desc>Created with Sketch.</desc>
<g id="Van-Der-Rohe-_x2022_-Desktop">
	<g id="Desktop" transform="translate(-565.000000, -4378.000000)">
		<g id="_x30_6---localizaçao" transform="translate(0.000000, 4021.000000)">
			<g id="fundo">
				<g id="Icon" transform="translate(566.000000, 358.000000)">
					<g id="Stroke-1">
						<path class="st0" d="M1077.2,738.1c-0.6,0-1.2-0.3-2-0.9c-0.2-0.2-0.5-0.4-0.9-0.6c-2.6-1.8-9.4-6.7-16-13.1
							c-0.6-0.6-0.6-1.5,0-2.1c0.6-0.6,1.5-0.6,2.1,0c6.4,6.3,13,11,15.6,12.8c0.4,0.3,0.7,0.5,1,0.7c0.1,0,0.1,0.1,0.2,0.1
							c0.1-0.1,0.2-0.1,0.2-0.2c0.2-0.2,0.5-0.3,0.8-0.5c2.8-1.9,27.6-19.3,29-34.5c0.4-4.1-1-7.7-4.2-10.9c-3.1-3-7.1-4.7-11.4-4.7
							c-10.2,0-11.3,4.8-12,8.4c-0.3,1.4-0.5,2.6-1.3,3.3c-0.3,0.3-0.7,0.4-1.1,0.4l0,0c-0.4,0-0.8-0.2-1.1-0.4
							c-0.8-0.8-1-2-1.3-3.3c-0.8-3.5-1.8-8.4-12-8.4c-4.3,0-8.4,1.7-11.4,4.7c-5.6,5.5-5.7,12.4-0.3,21.1c0.4,0.7,0.2,1.6-0.5,2.1
							c-0.7,0.4-1.6,0.2-2.1-0.5c-6-9.7-5.8-18.3,0.7-24.8c3.6-3.6,8.4-5.6,13.6-5.6c10.5,0,13.3,4.8,14.4,8.5
							c1.1-3.8,4-8.5,14.4-8.5c5.1,0,9.9,2,13.6,5.6c3.8,3.8,5.5,8.3,5,13.3c-1.5,16.3-25.5,33.4-30.3,36.7
							c-0.3,0.2-0.5,0.4-0.7,0.5C1078.4,737.8,1077.8,738.1,1077.2,738.1z"/>
					</g>
					<g id="Stroke-3">
						<path class="st0" d="M1076.6,727.6C1076.6,727.6,1076.5,727.6,1076.6,727.6c-0.6,0-1.2-0.4-1.4-1l-3.2-9.1h-4.8
							c-0.7,0-1.3-0.5-1.5-1.2L1063,703l-2.2,13.2c-0.1,0.7-0.7,1.3-1.5,1.3h-13.8c-0.8,0-1.5-0.7-1.5-1.5s0.7-1.5,1.5-1.5h12.5
							l3.4-20.1c0.1-0.7,0.7-1.2,1.5-1.3l0,0c0.7,0,1.3,0.5,1.5,1.2l3.9,20.2h4.6c0.6,0,1.2,0.4,1.4,1l2.2,6.3
							c2.5-6.6,4.4-11.8,6.7-19.7c0.2-0.6,0.8-1.1,1.4-1.1l0,0c0.7,0,1.2,0.4,1.4,1.1l3.7,12.4h10.9c0.8,0,1.5,0.7,1.5,1.5
							c0,0.8-0.7,1.5-1.5,1.5h-12c-0.7,0-1.2-0.4-1.4-1.1l-2.6-8.7c-1.9,6-3.7,10.7-5.9,16.7l-0.8,2.2
							C1077.7,727.2,1077.2,727.6,1076.6,727.6z"/>
					</g>
				</g>
			</g>
		</g>
	</g>
</g>
<path class="st0" d="M1491.9,614.8c1-3,1.5-6.2,1.5-9.5l0-0.6c-0.2-7.6-3.2-14.8-8.6-20.3c-3.7-3.7-8.4-6.4-13.4-7.8
	c-1.4-4.6-3.9-8.8-7.3-12.2c-5.6-5.6-13-8.7-20.9-8.7c-7,0-13.9,2.6-19.2,7.2c-4.1,3.6-7.3,8.4-8.9,13.6c-5.3,1.3-10.3,4.2-14.1,8.1
	c-5.4,5.6-8.4,12.9-8.4,20.7c0,3,0.4,5.9,1.3,8.8c0.4,1.4,1,2.7,1.6,4.1c-1.3,3.4-2,6.9-2,10.6c0,16,13,29,29,29
	c3.6,0,7.1-0.7,10.6-2.1l1.8-0.7v-20.3l-4.6,3.7c-3,2.4-6.9,3.3-10.7,2.4c-4.6-1.1-8.3-5-9.2-9.6c-0.7-3.8,0.2-7.5,2.6-10.4
	c2.4-2.9,5.9-4.5,9.6-4.5c6.9,0,12.4,5.6,12.4,12.4l0,50.2h16.6l0-49.8c0-6.1,4-11.4,9.6-12.6c3.8-0.8,7.6,0.1,10.6,2.4
	c3,2.4,4.7,5.9,4.7,9.7c0,3.3-1.3,6.4-3.6,8.8c-4.4,4.4-11.6,4.8-16.5,1l-4.6-3.7v20.3l1.8,0.7c3.4,1.3,6.9,2,10.4,2
	c7.7,0,15-3,20.5-8.5c5.5-5.5,8.5-12.8,8.5-20.5c0-3.8-0.8-7.7-2.2-11.2C1491.2,616.7,1491.6,615.7,1491.9,614.8z M1475.5,602.2
	c-7.3-3.2-16-3.1-23.3,0.1c0.5-2.1,1.6-4,3.1-5.5c2.2-2.3,5.1-3.6,8.1-3.7l0.6,0c2.2,0.1,4.1,0.6,5.7,1.4
	C1472.6,596.3,1474.7,599,1475.5,602.2z M1433.7,602c-7.4-3.1-16.1-3-23.3,0.4c0.5-2.1,1.6-4.1,3.1-5.7c2.2-2.3,5.1-3.6,8-3.6l0.6,0
	c2.2,0.1,4.1,0.5,5.7,1.4C1430.8,596.2,1432.9,598.9,1433.7,602z M1443,584.4C1443,584.4,1443,584.4,1443,584.4
	c-2.7-2.7-5.9-4.9-9.3-6.4c0.5-0.7,1.1-1.3,1.8-1.9c2.2-1.9,4.9-2.9,7.8-2.9c3.2,0,6.2,1.3,8.5,3.5c0.4,0.4,0.7,0.7,1,1.1
	C1449.1,579.3,1445.8,581.6,1443,584.4z"/>
<path id="Fill-1_5_" class="st1" d="M1489.2,613.9c0.9-2.7,1.4-5.6,1.4-8.6l0-0.6c-0.2-6.9-2.9-13.4-7.8-18.3
	c-3.7-3.8-8.5-6.3-13.6-7.4c-1.1-4.8-3.6-9.1-7-12.6c-5-5.1-11.7-7.9-18.9-7.9c-6.4,0-12.5,2.3-17.4,6.5c-4.2,3.6-7.2,8.5-8.5,13.9
	c-5.4,1-10.5,3.7-14.3,7.7c-4.9,5.1-7.6,11.7-7.6,18.8c0,2.7,0.4,5.4,1.2,8c0.5,1.7,1.2,3.3,2,4.8c-1.5,3.4-2.3,6.9-2.3,10.7
	c0,14.5,11.7,26.2,26.1,26.2c3.3,0,6.5-0.7,9.5-1.9v-12.4c-3.6,2.9-8.4,4-13.1,2.9c-5.7-1.4-10.2-6.1-11.3-11.9
	c-1.9-9.7,5.6-18.3,15-18.3h0c8.4,0,15.3,6.8,15.3,15.3l0,47.4h11l0-46.9c0-7.2,4.8-13.8,11.9-15.3c9.9-2.2,18.7,5.4,18.7,14.9
	c0,4.1-1.6,7.9-4.5,10.8c-2.9,2.9-6.7,4.5-10.8,4.5c-3.6,0-6.8-1.2-9.4-3.3v12.5c3,1.2,6.2,1.8,9.4,1.8c7,0,13.5-2.7,18.5-7.7
	c5-5,7.7-11.5,7.7-18.5c0-3.9-0.9-7.7-2.5-11.2C1488.2,616.4,1488.8,615.1,1489.2,613.9L1489.2,613.9z M1437,605.4
	c0,0.5,0,1-0.1,1.6c-4.3-2.8-9.3-4.3-14.4-4.3c-5.4,0-10.7,1.7-15.1,4.8c-0.1-0.7-0.1-1.4-0.1-2.1c0-4,1.5-7.8,4.2-10.6
	c2.7-2.8,6.3-4.4,10.2-4.5l0.6,0c2.4,0.1,4.9,0.6,7,1.8c4.8,2.7,7.6,7.6,7.8,12.8L1437,605.4z M1444.8,586.6
	c-0.6,0.7-1.2,1.4-1.8,2.1c-0.6-0.8-1.3-1.6-2-2.3c-3.2-3.2-7.1-5.6-11.4-6.8c0.9-2.1,2.3-4.1,4-5.6c2.7-2.3,6.1-3.6,9.7-3.6h0
	c4,0,7.7,1.6,10.5,4.4c1.3,1.3,2.4,3,3.2,4.7C1452.3,580.7,1448.1,583.1,1444.8,586.6L1444.8,586.6z M1478.7,605.4
	c0,0.6,0,1.2-0.1,1.7c-4.3-2.9-9.4-4.5-14.6-4.5c-5.3,0-10.5,1.6-14.9,4.7c-0.1-0.6-0.1-1.3-0.1-1.9c0-4,1.5-7.7,4.2-10.6
	c2.7-2.8,6.3-4.4,10.2-4.5l0.6,0c2.4,0.1,4.9,0.6,7,1.8c4.8,2.7,7.6,7.6,7.8,12.8L1478.7,605.4z"/>
<g id="Van-Der-Rohe-_x2022_-Desktop_1_">
	<g id="Desktop_1_" transform="translate(-565.000000, -4378.000000)">
		<g id="_x30_6---localizaçao_1_" transform="translate(0.000000, 4021.000000)">
			<g id="fundo_1_">
				<g id="Icon_1_" transform="translate(566.000000, 358.000000)">
					<g id="Stroke-1_1_">
						<path class="st0" d="M2042.1,600.6c-0.6,0-1.2-0.3-2-0.9c-0.2-0.2-0.5-0.4-0.9-0.6c-2.6-1.8-9.4-6.7-16-13.1
							c-0.6-0.6-0.6-1.5,0-2.1c0.6-0.6,1.5-0.6,2.1,0c6.4,6.3,13,11,15.6,12.8c0.4,0.3,0.7,0.5,1,0.7c0.1,0,0.1,0.1,0.2,0.1
							c0.1-0.1,0.2-0.1,0.2-0.2c0.2-0.2,0.5-0.3,0.8-0.5c2.8-1.9,27.6-19.3,29-34.5c0.4-4.1-1-7.7-4.2-10.9c-3.1-3-7.1-4.7-11.4-4.7
							c-10.2,0-11.3,4.8-12,8.4c-0.3,1.4-0.5,2.6-1.3,3.3c-0.3,0.3-0.7,0.4-1.1,0.4l0,0c-0.4,0-0.8-0.2-1.1-0.4
							c-0.8-0.8-1-2-1.3-3.3c-0.8-3.5-1.8-8.4-12-8.4c-4.3,0-8.4,1.7-11.4,4.7c-5.6,5.5-5.7,12.4-0.3,21.1c0.4,0.7,0.2,1.6-0.5,2.1
							c-0.7,0.4-1.6,0.2-2.1-0.5c-6-9.7-5.8-18.3,0.7-24.8c3.6-3.6,8.4-5.6,13.6-5.6c10.5,0,13.3,4.8,14.4,8.5
							c1.1-3.8,4-8.5,14.4-8.5c5.1,0,9.9,2,13.6,5.6c3.8,3.8,5.5,8.3,5,13.3c-1.5,16.3-25.5,33.4-30.3,36.7
							c-0.3,0.2-0.5,0.4-0.7,0.5C2043.3,600.3,2042.7,600.6,2042.1,600.6z"/>
					</g>
					<g id="Stroke-3_1_">
						<path class="st0" d="M2041.5,590.1C2041.5,590.1,2041.4,590.1,2041.5,590.1c-0.6,0-1.2-0.4-1.4-1l-3.2-9.1h-4.8
							c-0.7,0-1.3-0.5-1.5-1.2l-2.7-13.3l-2.2,13.2c-0.1,0.7-0.7,1.3-1.5,1.3h-13.8c-0.8,0-1.5-0.7-1.5-1.5c0-0.8,0.7-1.5,1.5-1.5
							h12.5l3.4-20.1c0.1-0.7,0.7-1.2,1.5-1.3l0,0c0.7,0,1.3,0.5,1.5,1.2l3.9,20.2h4.6c0.6,0,1.2,0.4,1.4,1l2.2,6.3
							c2.5-6.6,4.4-11.8,6.7-19.7c0.2-0.6,0.8-1.1,1.4-1.1l0,0c0.7,0,1.2,0.4,1.4,1.1l3.7,12.4h10.9c0.8,0,1.5,0.7,1.5,1.5
							c0,0.8-0.7,1.5-1.5,1.5h-12c-0.7,0-1.2-0.4-1.4-1.1l-2.6-8.7c-1.9,6-3.7,10.7-5.9,16.7l-0.8,2.2
							C2042.6,589.7,2042.1,590.1,2041.5,590.1z"/>
					</g>
				</g>
			</g>
		</g>
	</g>
</g>
</svg>
