<?xml version="1.0" encoding="utf-8"?>
<!-- Generator: Adobe Illustrator 19.0.0, SVG Export Plug-In . SVG Version: 6.00 Build 0)  -->
<svg version="1.1" id="Layer_1" xmlns="http://www.w3.org/2000/svg" xmlns:xlink="http://www.w3.org/1999/xlink" x="0px" y="0px"
	 viewBox="-274 566 251 149" style="enable-background:new -274 566 251 149;" xml:space="preserve">
<style type="text/css">
	.st0{fill:#FFFFFF;}
	.st1{fill:#33461B;}
</style>
<path class="st0" d="M-190.7,678.7c-4-3.9-11.3-3.6-18.9,1l0,0l-0.1,0.1l-3.7,2.6c-0.1,0.1-0.2,0.1-0.2,0.1
	c-0.1,0.1-0.2,0.2-0.3,0.3c0,0,0,0-0.1,0.1c-0.9,0.7-1.8,1.6-2.7,2.4l0,0c-0.4,0.4-0.8,0.8-1.1,1.2c0,0,0,0-0.1,0.1c0,0,0,0-0.1,0.1
	c-0.1,0.1-0.1,0.1-0.1,0.1l-2.6,3.1l-0.1,0.1c0,0,0,0,0,0.1c-0.9,1.2-1.6,2.4-2.4,3.7v0.1c0,0.1-0.1,0.1-0.1,0.1
	c0,0.1-0.1,0.1-0.1,0.2l-1.4,3c0,0.1-0.1,0.1-0.1,0.2c0,0.1-0.1,0.1-0.1,0.1c-2.2,5.9-1.6,11,1.4,14.1c1.8,1.8,4.3,2.7,7.3,2.7
	c1.4,0,3-0.2,4.5-0.6c4.8-1.2,9.9-4.3,14.1-8.6c4.3-4.3,7.4-9.3,8.6-14.1C-187.3,685.6-188,681.4-190.7,678.7z M-208.1,681.4
	c2.7,0.5,5.2,1.2,7.3,2.3c2,1,4.8,3.4,4.8,4.8c0,0.5-0.4,0.9-0.9,0.9c-0.3,0-0.5-0.1-0.6-0.2c-0.2-0.2-0.4-0.5-0.6-0.7
	c-0.4-0.6-0.9-1.3-2.2-2.1c-2.3-1.5-5.2-2.6-8.6-3.3C-208.4,682.7-208.1,682.1-208.1,681.4z M-215.7,688c4.1,0.3,7.8,1.2,10.7,2.7
	c2,1,4.8,3.4,4.8,4.8c0,0.5-0.4,0.9-0.9,0.9c-0.3,0-0.5-0.1-0.6-0.2c-0.2-0.2-0.4-0.5-0.6-0.7c-0.4-0.6-0.9-1.3-2.2-2.1
	c-2.9-1.9-6.9-3.2-11.4-3.7c0.2-0.3,0.2-0.7,0.2-1.1C-215.7,688.4-215.7,688.1-215.7,688z M-217.4,688.5L-217.4,688.5
	c0,0.5-0.3,0.9-0.8,1c0,0,0,0-0.1,0L-217.4,688.5z M-222.1,695.7C-222.1,695.8-222.1,695.8-222.1,695.7c0,0.4-0.2,0.7-0.4,0.8
	L-222.1,695.7z M-190.2,690.2c-1.2,4.5-4.1,9.3-8.2,13.4c-4.1,4.1-8.9,7-13.4,8.2c-4.4,1.1-8,0.6-10.3-1.6
	c-2.4-2.5-2.9-6.8-1.2-11.7h0.3c0.3,0,0.5-0.1,0.7-0.1c4.1,0.5,7.9,1.7,10.6,3.5c1,0.6,1.4,1.2,1.7,1.7c0.3,0.3,0.5,0.7,1,1.1
	c0.5,0.3,1,0.6,1.6,0.6c1.4,0,2.6-1.2,2.6-2.6c0-2.7-4.3-5.6-5.7-6.4c-2.8-1.5-6.4-2.4-10.3-2.8c0.4-0.7,0.9-1.4,1.4-2.1h1.2
	c0.1,0,0.1,0,0.2,0c5,0.3,9.6,1.6,12.7,3.6c1,0.6,1.4,1.2,1.7,1.7c0.3,0.3,0.5,0.7,1,1.1c0.5,0.3,1,0.6,1.6,0.6
	c1.4,0,2.6-1.2,2.6-2.6c0-2.7-4.3-5.6-5.7-6.4c-3-1.6-6.9-2.6-11.1-2.9c0.7-0.7,1.4-1.4,2.2-2c4.8,0.3,9.1,1.6,12,3.6
	c1,0.6,1.4,1.2,1.7,1.7c0.3,0.3,0.5,0.7,1,1.1c0.5,0.3,1,0.6,1.6,0.6c1.4,0,2.6-1.2,2.6-2.6c0-2.7-4.3-5.6-5.7-6.4
	c-1.9-1-4.2-1.8-6.7-2.3c6.1-3,11.7-3.1,14.8-0.1C-189.7,682.1-189.1,685.8-190.2,690.2z M-220.5,695c3.5,0.4,6.7,1.3,9.1,2.6
	c2,1,4.8,3.4,4.8,4.8c0,0.5-0.4,0.9-0.9,0.9c-0.2,0-0.4-0.1-0.6-0.2c-0.2-0.2-0.4-0.5-0.6-0.7c-0.4-0.6-0.9-1.3-2.2-2.1
	c-2.6-1.7-6-2.9-9.8-3.5c0.1-0.3,0.2-0.7,0.2-1C-220.4,695.5-220.4,695.2-220.5,695z"/>
<title>Icon</title>
<desc>Created with Sketch.</desc>
<g>
	<path class="st0" d="M-40.6,632.6c-0.8-0.7-1.4-1.3-1.6-2.7V624c0.6-0.9,0.7-1.6,0.4-2.3c-0.6-1.3-2.6-1.5-4-1.5h-0.1H-46h-0.1
		c-2.1,0.1-3.5,0.6-4,1.7c-0.2,0.5-0.3,1.3,0.4,2.2v5.9c-0.2,1.4-0.8,2-1.6,2.7c-1,0.9-2.2,2-2.4,4.5l0.1,14.6c0,1.4,0,2.2,0.6,2.9
		c0.6,0.6,1.6,0.7,3,0.7h1c2.5,0,4.8,0,7.3,0c1.3,0,2.3,0,2.9-0.7c0.6-0.6,0.6-1.4,0.6-2.6v-0.3l0.1-14.7
		C-38.5,634.6-39.7,633.5-40.6,632.6z M-45,647h-6.8l-0.1-7h6.8v7H-45z M-43,638h-8.9v-0.8c0.2-1.7,0.8-2.3,1.7-3.1
		c0.9-0.9,2-1.8,2.3-4V630v-6h3.6v6v0.1c0.3,2.1,1.3,3.1,2.3,4c0.9,0.8,1.6,1.4,1.7,3l-0.1,14.6v0.3c0,0.4,0,0.9,0,1.1
		c-0.2,0-0.5,0.1-1.5,0.1c-1.2,0-2.4,0-3.6,0c-1.2,0-2.4,0-3.6,0h-1c-0.4,0-1.3,0-1.6-0.1c-0.1-0.2-0.1-0.9-0.1-1.4V649h8.7v-11H-43
		z"/>
	<path class="st0" d="M-27.3,643.8c0.6-0.5,0.9-1.1,0.9-1.8l-0.1-2.3c0-0.4-0.3-0.7-0.7-0.6c-0.4,0-0.7,0.3-0.6,0.7l0.1,2.3
		c0,0.3-0.3,0.6-0.4,0.6c-0.3,0.2-0.7,0.4-1.1,0.4c-0.4,0-0.7,0.3-0.7,0.7c0,0.4,0.3,0.7,0.7,0.7C-28.5,644.4-27.8,644.2-27.3,643.8
		z"/>
	<path class="st0" d="M-24.9,653H-29v-5.2c1.6-0.2,3.2-0.9,4.2-2c0.9-1,1.4-2.2,1.4-3.5l-0.3-7.3l0,0c0,0,0,0,0-0.1l-0.2-3.9
		c0-0.5-0.5-1-1-1H-35c-0.5,0-1,0.4-1,1l-0.2,3.9c0,0,0,0,0,0.1l0,0l-0.3,7.3c0,1.3,0.4,2.5,1.4,3.5s2.4,1.7,4,1.9v5.3H-35
		c-0.6,0-1,0.4-1,1s0.4,1,1,1h10c0.6,0,1-0.4,1-1S-24.3,653-24.9,653z M-25.8,632l0.1,2H-34l0.1-2H-25.8z M-34.4,642.5l0.2-6.5h8.5
		l0.2,6.5c0,0.9-0.4,1.6-0.8,2c-0.9,0.9-2.2,1.4-3.6,1.4s-2.8-0.5-3.6-1.4C-33.9,644.1-34.4,643.4-34.4,642.5z"/>
</g>
<title>Icon</title>
<desc>Created with Sketch.</desc>
<path class="st0" d="M-28.9,595.1l-2.4-2.4l2.3-2.3c0.2-0.2,0.2-0.4,0.2-0.6s-0.1-0.5-0.2-0.6l-2.6-2.6l2.1-2.1
	c0.2-0.2,0.2-0.4,0.2-0.6c0-0.2-0.1-0.5-0.2-0.6l-3-3c-0.3-0.3-0.9-0.3-1.2,0l-6.4,6.5l-8.9-9l6.4-6.3c0.3-0.3,0.3-0.9,0-1.2l-3-3
	c-0.2-0.2-0.4-0.2-0.6-0.2c-0.2,0-0.5,0.1-0.6,0.2l-2.1,2.1l-2.6-2.6c-0.3-0.3-0.9-0.3-1.2,0l-2.3,2.3l-2.4-2.4
	c-0.3-0.3-0.9-0.3-1.2,0l-5.7,5.7c-0.3,0.3-0.3,0.9,0,1.2l2.4,2.4l-2.3,2.3c-0.2,0.2-0.3,0.4-0.3,0.6c0,0.2,0.1,0.5,0.2,0.6l2.6,2.6
	l-2,2c-0.3,0.3-0.3,0.9,0,1.2l3,3c0.2,0.2,0.4,0.2,0.6,0.2s0.5-0.1,0.6-0.2l6.5-6.3l8.9,8.9l-6.4,6.4c-0.2,0.2-0.2,0.4-0.2,0.6
	c0,0.2,0.1,0.5,0.2,0.6l3,3c0.2,0.2,0.4,0.2,0.6,0.2s0.5-0.1,0.6-0.2l2.1-2.1l2.6,2.6c0.2,0.2,0.4,0.2,0.6,0.2s0.5-0.1,0.6-0.2
	l2.3-2.3l2.4,2.4c0.2,0.2,0.4,0.2,0.6,0.2c0.2,0,0.5-0.1,0.6-0.2l5.7-5.7c0.2-0.2,0.2-0.4,0.2-0.6
	C-28.5,595.5-28.7,595.3-28.9,595.1z M-57.9,568.5l1.8,1.8l-4.5,4.5l-1.8-1.8L-57.9,568.5z M-52,568.6l1.8,1.8l-10.3,10.3l-1.8-1.8
	L-52,568.6z M-60.1,586.6l-1.8-1.8l15.7-15.7l1.8,1.8L-60.1,586.6z M-51.8,580.9l1.8-1.8l8.9,8.9l-1.8,1.8L-51.8,580.9z
	 M-46.9,599.7l-1.8-1.8l6.3-6.3c0,0,0.1,0,0.1-0.1l3-3c0.1-0.1,0.1-0.1,0.1-0.1l6.3-6.3l1.8,1.8L-46.9,599.7z M-41.1,600.2l-1.8-1.8
	l10.3-10.4l1.8,1.8l-4,4.1l-4,4l0,0L-41.1,600.2z M-35.2,600.3l-1.8-1.8l3.2-3.2l1.3-1.3l1.8,1.8L-35.2,600.3z"/>
<title>Icon</title>
<desc>Created with Sketch.</desc>
<g>
	<path class="st0" d="M-207.2,588.5c-0.2-0.2-0.4-0.3-0.6-0.3h-1.6l0,0c0-4.7-1.8-8.7-5.1-11.4c-2.5-2.1-5.8-3.4-9.4-3.7
		c0.4-0.4,0.6-1,0.6-1.6c0-1.3-1.1-2.4-2.3-2.4c-1.4-0.1-2.4,1-2.4,2.4c0,0.6,0.2,1.2,0.6,1.6c-3.6,0.3-6.8,1.6-9.4,3.7
		c-3.2,2.8-5,6.7-5,11.4l0,0h-1.6c-0.2,0-0.5,0.1-0.6,0.3c-0.2,0.2-0.2,0.5-0.2,0.7c0.4,3.2,5.5,4,7.3,4.1h0.9c0,0.1,0,0.2,0,0.3
		c-0.2,1,0.4,2.1,1.4,2.9l4.2,3.4c0.1,0.1,0.1,0.1,0.3,0.2c3.3,2.4,4.3,3.8,4.7,4.6l-1.3,0.4c-0.5,0.1-0.8,0.6-0.6,1.1
		c0.1,0.4,0.5,0.6,0.8,0.6c0.1,0,0.2,0,0.2-0.1l10.8-3.1c0.5-0.1,0.8-0.6,0.6-1.1c-0.1-0.4-0.6-0.7-1.1-0.5l-2,0.6
		c0.1-0.2,0.1-0.4,0.2-0.6c0.2-1,0.5-2,1.7-3.9c0.2-0.4,0.6-0.8,1.1-1.3c0.6-0.8,1.2-1.5,1.5-2c0.4-0.5,0.5-1,0.5-1.4
		c2.2-0.3,5.8-1.3,6.1-4C-207,589-207,588.7-207.2,588.5z M-225.6,570.8c0.3,0,0.6,0.3,0.6,0.6c0,0.4-0.2,0.6-0.6,0.6
		c-0.3,0-0.6-0.3-0.6-0.6C-226.1,571.1-225.9,570.8-225.6,570.8z M-240,588.2c0-9.2,7.5-13.5,14.4-13.5c6.9,0,14.4,4.3,14.4,13.5
		l0,0H-240L-240,588.2z M-215.1,593.8c-0.1,0.4-0.8,1.1-1.3,1.6c-0.5,0.6-0.9,1.1-1.2,1.5c-1.3,2.2-1.6,3.3-1.9,4.4
		c-0.1,0.3-0.2,0.6-0.2,0.9c-0.1,0.2-0.1,0.5,0.1,0.7l-4,1.2c-0.6-1.5-2.3-3.2-5.3-5.5c-0.1-0.1-0.2-0.1-0.2-0.2l-4.2-3.4
		c-0.6-0.5-0.8-1-0.8-1.2c0-0.1,0.1-0.2,0.2-0.2c0.2-0.1,0.6,0,1,0.4l1.1,1l0,0l0,0h0.1l3.2,2.7c0.4,0.3,0.9,0.2,1.2-0.1
		c0.3-0.4,0.2-0.9-0.1-1.2l-3.2-2.6l0,0l0,0c-0.1-0.1-0.1-0.1-0.1-0.1c0-0.1,0.1-0.2,0.4-0.3c0.2-0.1,0.7-0.1,1.2,0.4l0.9,0.9l0,0
		l0,0l2.1,2.2c0.2,0.2,0.4,0.3,0.6,0.3s0.5-0.1,0.6-0.2c0.4-0.4,0.4-0.9,0-1.2l-2.1-2.1c0.1-0.1,0.4-0.1,0.6-0.2
		c0.2,0,0.9,0,1.3,0.5c0.6,0.6,1,1.1,1.4,1.6c1.1,1.4,2.2,2.7,4.6,1.4c0.8-0.4,1.2-1,1.5-1.6c0.1-0.2,0.2-0.4,0.4-0.6
		c0.4-0.6,1.6-0.9,2.3-1C-215.1,593.7-215.1,593.8-215.1,593.8z M-223.4,593.3h4.9c-0.1,0.1-0.2,0.2-0.3,0.4
		c-0.2,0.2-0.3,0.5-0.4,0.7c-0.4,0.5-0.5,0.8-0.9,1c-1.2,0.6-1.3,0.5-2.5-0.9C-222.7,594.1-223,593.7-223.4,593.3z M-214.3,591.6
		h-22.6c-1.6-0.1-3.9-0.6-4.9-1.6h32.5C-210.4,590.9-212.6,591.5-214.3,591.6z"/>
	<path class="st0" d="M-212.7,585.5c-1.3-6.9-7.5-9.9-13-9.9l0,0c-0.5,0-0.9,0.4-0.9,0.9s0.4,0.9,0.9,0.9c4.8,0,10.2,2.6,11.3,8.5
		c0.1,0.4,0.5,0.7,0.9,0.7c0.1,0,0.1,0,0.2,0C-212.9,586.5-212.6,586-212.7,585.5z"/>
</g>
<title>Icon</title>
<desc>Created with Sketch.</desc>
<g>
	<path class="st0" d="M-238.8,638.8c-1.2-0.9-2.7-1.1-4.2-0.9c0.1-0.7,0.1-1.5,0.1-2.1c-0.1-0.5-0.4-0.9-0.9-0.9h-28.3
		c-0.5,0-0.9,0.4-0.9,0.9c-0.4,4.1,2.3,11.7,6.8,15.8h-7.4c-0.2,0-0.5,0.1-0.7,0.3c-0.2,0.2-0.2,0.5-0.2,0.7
		c0.2,1.8,4.9,5.4,8.2,5.4h16.4c2,0,4.1-1.3,5.2-2.1c0.7-0.5,2.9-2.1,3.1-3.4c0.1-0.2-0.1-0.5-0.2-0.7c-0.2-0.2-0.4-0.3-0.7-0.3
		h-7.3c1-0.9,1.9-2,2.7-3.2c0.1,0,0.2-0.1,0.2-0.1c1.5-0.9,3-1.4,4.3-1.9c2.4-0.9,4.4-1.6,4.8-3.7
		C-237.2,641-237.7,639.6-238.8,638.8z M-249.7,656.2h-16.5c-1.9,0-4.3-1.6-5.6-2.8h27.6C-245.5,654.5-247.9,656.2-249.7,656.2z
		 M-252.6,651.4C-252.7,651.4-252.7,651.5-252.6,651.4l-10.5,0.1c-0.1-0.1-0.1-0.1-0.1-0.1c-4.8-2.6-7.9-10.3-8-14.7h26.5
		C-244.8,641.4-248.4,649.1-252.6,651.4z M-239.4,642.3c-0.2,1-1.5,1.5-3.7,2.3c-0.7,0.2-1.5,0.5-2.3,0.9c0.9-1.8,1.6-3.8,2.1-5.6
		c1.2-0.4,2.6-0.2,3.4,0.3C-239.4,640.7-239.2,641.3-239.4,642.3z"/>
	<path class="st0" d="M-260,628.5c0.1,1.2,0.7,2.2,1.7,3c0.2,0.1,0.4,0.2,0.5,0.2c0.3,0,0.5-0.1,0.7-0.4c0.3-0.4,0.2-1-0.2-1.3
		c-0.6-0.4-0.9-1-1-1.7c-0.1-0.7,0.2-1.5,0.6-2c1.3-1.6,1.8-4.2-0.5-6.2c-0.4-0.3-1-0.3-1.3,0.1c-0.3,0.4-0.3,1,0.1,1.3
		c1.4,1.2,1.1,2.7,0.3,3.6C-259.7,626.1-260.1,627.3-260,628.5z"/>
	<path class="st0" d="M-253.3,632c0.2,0.2,0.4,0.2,0.6,0.2s0.5-0.1,0.7-0.3c0.4-0.4,0.3-1-0.1-1.3c-1-0.9-0.7-2.4-0.2-3.1
		c1-1.4,1.3-3.6-0.4-5.4c-0.4-0.4-0.9-0.4-1.3,0c-0.4,0.4-0.4,0.9,0,1.3c1,1,0.7,2.3,0.2,3C-254.8,628.1-255,630.5-253.3,632z"/>
	<path class="st0" d="M-263.1,632c0.2,0.2,0.4,0.2,0.6,0.2s0.5-0.1,0.7-0.3c0.4-0.4,0.3-1-0.1-1.3c-1-0.9-0.7-2.4-0.2-3.1
		c1-1.4,1.3-3.6-0.4-5.4c-0.4-0.4-0.9-0.4-1.3,0c-0.4,0.4-0.4,0.9,0,1.3c1,1,0.7,2.3,0.2,3C-264.8,628.1-264.9,630.5-263.1,632z"/>
</g>
<title>Icon</title>
<desc>Created with Sketch.</desc>
<g>
	<path class="st0" d="M-92.4,704c-2.3,0-4.3,1.9-4.3,4.3c0,2.4,1.9,4.3,4.3,4.3c2.4,0,4.3-1.9,4.3-4.3C-88.1,705.9-90,704-92.4,704z
		 M-92.4,710.7c-1.3,0-2.5-1.1-2.5-2.5c0-1.4,1.1-2.5,2.5-2.5s2.5,1.1,2.5,2.5C-89.9,709.6-91,710.7-92.4,710.7z"/>
	<path class="st0" d="M-79.4,704c-2.3,0-4.3,1.9-4.3,4.3c0,2.4,1.9,4.3,4.3,4.3c2.4,0,4.3-1.9,4.3-4.3
		C-75.1,705.9-77.1,704-79.4,704z M-79.4,710.7c-1.3,0-2.5-1.1-2.5-2.5c0-1.4,1.1-2.5,2.5-2.5s2.5,1.1,2.5,2.5
		C-76.9,709.6-78.1,710.7-79.4,710.7z"/>
	<path class="st0" d="M-70.9,687h-27.5l-2.8-8.9c-0.1-0.4-0.5-0.7-0.9-0.7h-6.8c-0.5,0-0.9,0.4-0.9,0.9s0.4,0.9,0.9,0.9h6.1l6.1,20
		c0.1,0.4,0.5,0.7,0.9,0.7h21.1c0.5,0,0.9-0.4,0.9-0.9s-0.4-0.9-0.9-0.9H-95l-1.2-3.7h23.9c0.5,0,0.9-0.4,0.9-0.9s-0.4-0.9-0.9-0.9
		h-24.4l-1.1-3.7h26.9c0.5,0,0.9-0.4,0.9-0.9S-70.4,687-70.9,687z"/>
</g>
<g id="fundo">
</g>
<path class="st0" d="M-125.9,624.8c0.4-1.2,0.6-2.4,0.6-3.7l0-0.2c-0.1-3-1.3-5.7-3.3-7.8c-1.4-1.4-3.2-2.5-5.2-3
	c-0.5-1.8-1.5-3.4-2.8-4.7c-2.2-2.2-5-3.4-8.1-3.4c-2.7,0-5.4,1-7.4,2.8c-1.6,1.4-2.8,3.2-3.5,5.3c-2.1,0.5-4,1.6-5.5,3.1
	c-2.1,2.2-3.2,5-3.2,8c0,1.2,0.2,2.3,0.5,3.4c0.2,0.5,0.4,1.1,0.6,1.6c-0.5,1.3-0.8,2.7-0.8,4.1c0,6.2,5,11.2,11.2,11.2
	c1.4,0,2.8-0.3,4.1-0.8l0.7-0.3v-7.8l-1.8,1.4c-1.2,0.9-2.7,1.3-4.1,0.9c-1.8-0.4-3.2-1.9-3.6-3.7c-0.3-1.5,0.1-2.9,1-4
	c0.9-1.1,2.3-1.8,3.7-1.8c2.7,0,4.8,2.2,4.8,4.8l0,19.4h6.4l0-19.3c0-2.4,1.6-4.4,3.7-4.9c1.5-0.3,3,0,4.1,0.9
	c1.1,0.9,1.8,2.3,1.8,3.8c0,1.3-0.5,2.5-1.4,3.4c-1.7,1.7-4.5,1.9-6.4,0.4l-1.8-1.4v7.9l0.7,0.3c1.3,0.5,2.7,0.8,4,0.8
	c3,0,5.8-1.2,7.9-3.3c2.1-2.1,3.3-4.9,3.3-7.9c0-1.5-0.3-3-0.9-4.3C-126.2,625.5-126.1,625.2-125.9,624.8z M-132.3,619.9
	c-2.8-1.2-6.2-1.2-9,0c0.2-0.8,0.6-1.5,1.2-2.1c0.9-0.9,2-1.4,3.1-1.4l0.2,0c0.9,0,1.6,0.2,2.2,0.6
	C-133.4,617.7-132.6,618.7-132.3,619.9z M-148.5,619.9c-2.9-1.2-6.2-1.1-9,0.1c0.2-0.8,0.6-1.6,1.2-2.2c0.8-0.9,2-1.4,3.1-1.4l0.2,0
	c0.9,0,1.6,0.2,2.2,0.5C-149.6,617.6-148.8,618.7-148.5,619.9z M-144.9,613C-144.9,613-144.9,613-144.9,613c-1-1.1-2.3-1.9-3.6-2.5
	c0.2-0.3,0.4-0.5,0.7-0.7c0.8-0.7,1.9-1.1,3-1.1c1.2,0,2.4,0.5,3.3,1.4c0.1,0.1,0.3,0.3,0.4,0.4C-142.5,611.1-143.8,612-144.9,613z"
	/>
<path id="Fill-1_5_" class="st1" d="M-127,624.5c0.3-1.1,0.5-2.2,0.5-3.3l0-0.2c-0.1-2.7-1.1-5.2-3-7.1c-1.4-1.5-3.3-2.5-5.3-2.9
	c-0.4-1.8-1.4-3.5-2.7-4.9c-1.9-2-4.5-3.1-7.3-3.1c-2.5,0-4.8,0.9-6.7,2.5c-1.6,1.4-2.8,3.3-3.3,5.4c-2.1,0.4-4.1,1.4-5.5,3
	c-1.9,2-2.9,4.5-2.9,7.3c0,1,0.2,2.1,0.5,3.1c0.2,0.6,0.5,1.3,0.8,1.8c-0.6,1.3-0.9,2.7-0.9,4.1c0,5.6,4.5,10.1,10.1,10.1
	c1.3,0,2.5-0.3,3.7-0.7v-4.8c-1.4,1.1-3.2,1.6-5.1,1.1c-2.2-0.5-4-2.4-4.4-4.6c-0.7-3.8,2.2-7.1,5.8-7.1h0c3.3,0,5.9,2.6,5.9,5.9
	l0,18.3h4.2l0-18.2c0-2.8,1.9-5.3,4.6-5.9c3.8-0.8,7.2,2.1,7.2,5.8c0,1.6-0.6,3.1-1.7,4.2c-1.1,1.1-2.6,1.7-4.2,1.7
	c-1.4,0-2.7-0.5-3.7-1.3v4.8c1.2,0.4,2.4,0.7,3.6,0.7c2.7,0,5.2-1.1,7.2-3c1.9-1.9,3-4.5,3-7.2c0-1.5-0.3-3-1-4.3
	C-127.4,625.4-127.2,624.9-127,624.5L-127,624.5z M-147.2,621.2c0,0.2,0,0.4,0,0.6c-1.6-1.1-3.6-1.7-5.6-1.7c-2.1,0-4.2,0.7-5.9,1.9
	c0-0.3-0.1-0.5-0.1-0.8c0-1.5,0.6-3,1.6-4.1c1-1.1,2.4-1.7,3.9-1.7l0.2,0c0.9,0,1.9,0.2,2.7,0.7c1.9,1.1,3,3,3,5L-147.2,621.2z
	 M-144.2,613.9c-0.2,0.3-0.5,0.5-0.7,0.8c-0.2-0.3-0.5-0.6-0.8-0.9c-1.2-1.3-2.8-2.2-4.4-2.6c0.3-0.8,0.9-1.6,1.6-2.2
	c1-0.9,2.4-1.4,3.7-1.4h0c1.5,0,3,0.6,4.1,1.7c0.5,0.5,0.9,1.1,1.2,1.8C-141.3,611.6-142.9,612.6-144.2,613.9L-144.2,613.9z
	 M-131,621.2c0,0.2,0,0.5,0,0.7c-1.7-1.1-3.6-1.7-5.7-1.7c-2.1,0-4.1,0.6-5.8,1.8c0-0.2,0-0.5,0-0.7c0-1.5,0.6-3,1.6-4.1
	c1.1-1.1,2.5-1.7,4-1.8l0.2,0c0.9,0,1.9,0.2,2.7,0.7c1.9,1.1,3,3,3,5L-131,621.2z"/>
</svg>
