<?xml version="1.0" encoding="UTF-8" standalone="no"?>
<svg width="59px" height="16px" viewBox="0 0 59 16" version="1.1" xmlns="http://www.w3.org/2000/svg" xmlns:xlink="http://www.w3.org/1999/xlink">
    <!-- Generator: Sketch 42 (36781) - http://www.bohemiancoding.com/sketch -->
    <title>logo perplan</title>
    <desc>Created with Sketch.</desc>
    <defs>
        <polygon id="path-1" points="0 15.9867059 58.9118498 15.9867059 58.9118498 0 0 0"></polygon>
    </defs>
    <g id="Van-Der-Rohe-•-Mobile" stroke="none" stroke-width="1" fill="none" fill-rule="evenodd">
        <g id="Mobile" transform="translate(-247.000000, -8.000000)">
            <g id="01---destaque">
                <g id="barra-perlan">
                    <g id="logo-perplan" transform="translate(247.000000, 8.000000)">
                        <path d="M58.9118148,11.7946 L58.9092496,7.5086 C58.9230085,5.73636471 57.786967,4.72224706 56.1203919,4.58401176 C56.0796982,4.58212941 56.0016923,4.58271765 56.0016923,4.58271765 C54.3373326,4.72189412 53.2009413,5.73636471 53.2147002,7.5086 L53.2149334,11.7946 L54.6800223,11.7946 L54.6800223,7.48565882 C54.6972792,6.56695294 55.1693958,6.05283529 56.0627911,6.03377647 C56.957469,6.05271765 57.427137,6.56718824 57.4438109,7.48565882 L57.4438109,11.7946 L58.9118148,11.7946 Z" id="Fill-1" fill="#FEFEFE"></path>
                        <path d="M21.3026146,4.51064706 C19.2695632,4.51064706 17.7921146,6.09723529 17.8071561,8.03970588 L17.8071561,14.467 L19.1591423,14.467 L19.1591423,8.02994118 C19.1281265,6.80547059 19.966253,5.91335294 21.2544585,5.91358824 C24.1690119,5.95841176 24.0641877,10.0962941 21.3050632,10.2040588 C20.7192609,10.1941765 20.2507589,10.0208824 19.9473636,9.56064706 L19.9473636,11.2433529 C20.3138399,11.4724118 20.7498103,11.5908824 21.2544585,11.5968824 C23.370996,11.5991176 24.786413,10.1208824 24.7901443,8.02994118 C24.7806996,6.435 23.5939368,4.51241176 21.3026146,4.51064706" id="Fill-3" fill="#FEFEFE"></path>
                        <path d="M39.293452,4.47508235 C37.2570192,4.47508235 35.7838848,6.06084706 35.7978769,8.00414118 L35.7978769,14.4293176 L37.150446,14.4293176 L37.1503294,7.99425882 C37.1215291,6.77025882 37.9524263,5.87531765 39.2472781,5.87531765 C42.15845,5.92037647 42.0525765,10.0613176 39.2968334,10.1661412 C38.7109144,10.1569647 38.2400804,9.98355294 37.9369184,9.52578824 L37.9369184,11.2040235 C38.3016457,11.4356706 38.7388986,11.5548471 39.2472781,11.5612 C41.3588018,11.5630824 42.782031,10.0852 42.7817978,7.99425882 C42.7692049,6.39943529 41.5824421,4.47508235 39.293452,4.47508235" id="Fill-5" fill="#FEFEFE"></path>
                        <path d="M32.4578939,7.38564706 L32.4578939,11.6710588 L33.923799,11.6710588 L33.923799,7.36647059 C33.9409393,6.42388235 34.4345105,5.91023529 35.3656844,5.91023529 L35.3656844,4.45776471 C33.6363781,4.55341176 32.4462338,5.57447059 32.4578939,7.38564706" id="Fill-7" fill="#FEFEFE"></path>
                        <path d="M28.7623251,4.45114118 C26.6958093,4.45396471 25.2034358,6.04514118 25.2039022,8.03925882 C25.2115978,9.95843529 26.8861018,11.6027882 28.7351571,11.6027882 C29.6930326,11.5694941 30.5066729,11.2293765 31.1772441,10.5831412 L30.1663152,9.56502353 L30.166082,9.56502353 C29.8338864,9.95843529 29.3665504,10.1805529 28.7096215,10.1733765 C27.6253508,10.1706706 26.6265484,9.22631765 26.6265484,8.06808235 C26.62375,6.67372941 27.7103528,5.86749412 28.6264852,5.86808235 C29.2455188,5.87525882 29.7151868,6.04902353 30.0329239,6.41031765 C30.7641275,7.10278824 29.6360148,8.37314118 28.8525741,7.60102353 L27.8218231,8.64267059 C28.4722223,9.1622 29.1356808,9.37196471 29.8488113,9.20867059 C30.7739219,9.00937647 31.4332994,8.46972941 31.6625366,7.37631765 C32.0302955,5.68396471 30.1474259,4.45267059 28.7623251,4.45114118" id="Fill-9" fill="#FEFEFE"></path>
                        <path d="M49.0584067,4.67632941 C46.7701162,4.67832941 45.5811379,6.59985882 45.5709937,8.19668235 C45.5739087,10.2871529 46.9930569,11.7619765 49.1057466,11.7619765 C49.6127269,11.7560941 50.0479976,11.6402118 50.4173889,11.4069176 L50.4173889,9.72574118 C50.1095628,10.1864471 49.6419937,10.3590353 49.0535095,10.3677412 C46.2966004,10.2612706 46.1922427,6.12162353 49.1057466,6.07891765 C50.401298,6.07891765 51.230796,6.97103529 51.2053771,8.19668235 L51.2053771,11.7804471 L52.555381,11.7804471 L52.555381,8.2048 C52.5726379,6.26103529 51.0923909,4.67632941 49.0584067,4.67632941" id="Fill-11" fill="#FEFEFE"></path>
                        <mask id="mask-2" fill="white">
                            <use xlink:href="#path-1"></use>
                        </mask>
                        <g id="Clip-14"></g>
                        <polygon id="Fill-13" fill="#FEFEFE" mask="url(#mask-2)" points="43.5088854 11.6356471 45.0114032 11.6356471 45.0114032 1.51976471 43.5088854 1.51976471"></polygon>
                        <path d="M11.2403162,6.37117647 C11.2403162,6.45070588 11.236002,6.52952941 11.2274901,6.60752941 C10.6461186,6.21105882 9.9565415,5.99564706 9.25262253,5.99564706 C8.53307905,5.99564706 7.83067589,6.21988235 7.2425415,6.63294118 C7.23181423,6.54682353 7.22668379,6.45952941 7.22668379,6.37117647 C7.22668379,5.82858824 7.42968577,5.318 7.79861067,4.93376471 C8.16520356,4.55129412 8.65411067,4.33282353 9.17589921,4.31776471 L9.2336166,4.31964706 C9.76951383,4.31964706 10.2728794,4.532 10.6513656,4.91741176 C11.0187747,5.29176471 11.2285395,5.78811765 11.2415988,6.306 L11.2403162,6.37117647 Z M6.65872134,3.81705882 C6.57255336,3.90705882 6.490583,4.00188235 6.41385968,4.10023529 C6.3283913,3.99082353 6.23709289,3.88647059 6.14043083,3.78811765 C5.7080751,3.34729412 5.1776581,3.02847059 4.59582016,2.85764706 C4.71638538,2.56552941 4.90248024,2.30505882 5.14151186,2.09623529 C5.50320751,1.77988235 5.96599605,1.60576471 6.44440909,1.60576471 L6.44464229,1.60576471 C6.98065613,1.60576471 7.48390514,1.818 7.8622747,2.20341176 C8.04218972,2.38694118 8.18700791,2.60505882 8.28786759,2.84282353 C7.6697668,3.01258824 7.11054941,3.34658824 6.65872134,3.81705882 L6.65872134,3.81705882 Z M5.60185178,6.37117647 C5.60185178,6.44247059 5.59823715,6.51352941 5.59124111,6.584 C5.01721542,6.20270588 4.34023123,5.99564706 3.65193676,5.99564706 C2.91793478,5.99564706 2.20433794,6.22776471 1.60967391,6.65494118 C1.59766403,6.56211765 1.59160079,6.46729412 1.59160079,6.37117647 C1.59160079,5.82847059 1.79483597,5.31717647 2.16376087,4.93188235 C2.52930435,4.55023529 3.01681225,4.33223529 3.53720158,4.31776471 L3.59515217,4.31964706 C4.13139921,4.31964706 4.63511462,4.532 5.01336759,4.91741176 C5.38042688,5.29152941 5.5900751,5.788 5.60301779,6.30647059 L5.60185178,6.37117647 Z M12.8314506,6.36235294 L12.8285356,6.28011765 C12.8061482,5.33964706 12.4331423,4.45458824 11.7785455,3.78811765 C11.2782115,3.27823529 10.6285119,2.92517647 9.93660277,2.78411765 C9.78140711,2.13811765 9.45562451,1.54941176 8.98980435,1.07435294 C8.31013834,0.381529412 7.40613241,0 6.44440909,0 C5.58611067,0 4.75404743,0.314352941 4.10213241,0.884705882 C3.53743478,1.37811765 3.13306324,2.04505882 2.95326482,2.77494118 C2.21926285,2.91141176 1.53703162,3.27917647 1.01967391,3.81964706 C0.362162055,4.50647059 0,5.41270588 0,6.37117647 C0,6.73776471 0.0544525692,7.10247059 0.161841897,7.45529412 C0.230403162,7.68011765 0.320418972,7.89811765 0.430023715,8.10482353 C0.226088933,8.56188235 0.122664032,9.04941176 0.122547431,9.556 C0.122547431,11.5207059 1.70586957,13.1190588 3.65193676,13.1191765 C4.09233794,13.1191765 4.53040711,13.0302353 4.94025889,12.8669412 L4.94025889,11.1767059 C4.57634783,11.4694118 4.1306996,11.6292941 3.66196443,11.6292941 C2.52592292,11.6292941 1.60151186,10.6969412 1.60151186,9.55070588 C1.60151186,8.40411765 2.52592292,7.47129412 3.66196443,7.47129412 L3.66208103,7.47129412 C4.79905534,7.47129412 5.72393281,8.40411765 5.72393281,9.55070588 L5.7233498,15.9867059 L7.20266403,15.9867059 L7.20371344,9.55070588 C7.20406324,8.40423529 8.1274249,7.47129412 9.2623004,7.47129412 C10.3993913,7.47129412 11.324502,8.40411765 11.324502,9.55070588 C11.324502,10.1034118 11.1097233,10.6247059 10.7195771,11.0184706 C10.329081,11.4123529 9.81137352,11.6292941 9.2623004,11.6292941 C8.78097233,11.6292941 8.33847233,11.4604706 7.98738735,11.1795294 L7.98738735,12.8752941 C8.39047628,13.0329412 8.8202668,13.1190588 9.25262253,13.1191765 C10.1937075,13.1191765 11.0798735,12.7482353 11.7472964,12.0744706 C12.4153024,11.4005882 12.7828281,10.5061176 12.7828281,9.556 C12.7828281,9.02952941 12.6645949,8.504 12.4406047,8.02905882 C12.5229249,7.86552941 12.593002,7.69694118 12.6483874,7.52635294 C12.7698854,7.15505882 12.8318004,6.76576471 12.8314506,6.36235294 L12.8314506,6.36235294 Z" id="Fill-15" fill="#FEFEFE" mask="url(#mask-2)"></path>
                    </g>
                </g>
            </g>
        </g>
    </g>
</svg>