<?xml version="1.0" encoding="utf-8"?>
<!-- Generator: Adobe Illustrator 19.0.0, SVG Export Plug-In . SVG Version: 6.00 Build 0)  -->
<svg version="1.1" id="Layer_1" xmlns="http://www.w3.org/2000/svg" xmlns:xlink="http://www.w3.org/1999/xlink" x="0px" y="0px"
	 viewBox="7.5 0 402.1 273.1" style="enable-background:new 7.5 0 402.1 273.1;" xml:space="preserve">
<style type="text/css">
	.st0{fill:#405860;}
	.st1{fill:#FFFFFF;}
	.st2{fill:none;stroke:#93AC50;stroke-width:4;}
	.st3{fill:#9BC038;}
	.st4{fill:none;stroke:#FFFFFF;stroke-width:6;}
	.st5{fill:#708344;}
</style>
<g id="Van-Der-Rohe-_x2022_-Mobile">
	<g id="Page-1" transform="translate(26.000000, 982.000000)">
		<path id="Fill-1" class="st0" d="M-3-961.6h5.5v-4.8H-3V-961.6z M7.7-955.3H3.5c-0.5,0-1,0.4-1,1c0,0.5,0.4,1,1,1h4.2v4H-3v-4h1.7
			c0.5,0,1-0.4,1-1c0-0.5-0.4-1-1-1H-3v-4.3h6.4c0.5,0,1-0.4,1-1v-5.8h3.3C7.7-966.4,7.7-955.3,7.7-955.3z M-3.9-947.5H15
			c0.5,0,1-0.4,1-1v-4.9c0.5,0,0.9-0.4,0.9-1c0-0.5-0.4-1-1-1h-1.8c-0.5,0-1,0.4-1,1c0,0.5,0.4,0.9,0.9,1v4H9.6v-17H14v4
			c-0.5,0-0.9,0.4-0.9,1c0,0.5,0.4,1,1,1h1.8c0.5,0,1-0.4,1-1c0-0.5-0.4-0.9-0.9-1v-4.9c0-0.5-0.4-1-1-1H-3.9c-0.5,0-1,0.4-1,1v18.9
			C-4.9-947.9-4.5-947.5-3.9-947.5L-3.9-947.5z"/>
		<path id="Fill-3" class="st0" d="M-7.3-959h-8.9c-0.5,0-0.8-0.4-0.8-0.8v-8.9c-0.4-0.1-0.7-0.4-0.7-0.8c0-0.5,0.4-0.8,0.8-0.8h1.3
			c0.5,0,0.8,0.4,0.8,0.8c0,0.4-0.3,0.7-0.7,0.8v2.4h5.2v-12h-5.2v2.6c0.4,0.1,0.7,0.4,0.7,0.8c0,0.5-0.4,0.8-0.8,0.8h-1.3
			c-0.5,0-0.8-0.4-0.8-0.8c0-0.4,0.3-0.7,0.7-0.8v-3.5c0-0.5,0.4-0.8,0.8-0.8H3.2c0.5,0,0.8,0.4,0.8,0.8v8.2H2.3v-7.4h-3.6v4.9
			c0,0.5-0.4,0.8-0.8,0.8c-0.5,0-0.8-0.4-0.8-0.8v-4.9h-5.5v8.7h1.5v1.7h-1.5v2.5c0,0.5-0.4,0.8-0.8,0.8h-6v4h8v1.7H-7.3z"/>
		<path id="Fill-4" class="st0" d="M-8.6-948.4c-3.3,0-5.6-2.6-6.5-5.4l1.6,0.8c0.4,0.2,0.8,0,1-0.3c0.2-0.4,0-0.8-0.3-1l-3-1.5
			c0,0,0,0-0.1,0c-0.1,0-0.1,0-0.2,0s-0.1,0-0.1,0s0,0-0.1,0c0,0,0,0-0.1,0s-0.1,0-0.2,0.1c0,0-0.1,0-0.1,0.1l-0.1,0.1l-0.1,0.1
			c0,0,0,0,0,0.1l-1.5,3c-0.2,0.4,0,0.8,0.3,1c0.1,0.1,0.2,0.1,0.3,0.1c0.3,0,0.5-0.2,0.7-0.4l0.6-1.2c1.1,3.3,3.9,6.1,7.8,6.2
			c0.4,0,0.8-0.3,0.8-0.8C-7.9-948-8.2-948.4-8.6-948.4"/>
		<path id="Fill-5" class="st0" d="M6.1-980.4c3.3,0,5.6,2.6,6.5,5.4l-1.6-0.8c-0.4-0.2-0.8,0-1,0.3c-0.2,0.4,0,0.8,0.3,1l3,1.5l0,0
			c0.1,0,0.2,0.1,0.3,0.1h0.1c0.1,0,0.2-0.1,0.3-0.1l0,0c0.1-0.1,0.2-0.2,0.2-0.3l0,0l1.5-3c0.2-0.4,0-0.8-0.3-1
			c-0.4-0.2-0.8,0-1,0.3l-0.6,1.2c-1-3.2-3.7-6.1-7.7-6.1c-0.4,0.1-0.8,0.3-0.8,0.8C5.4-980.7,5.7-980.4,6.1-980.4"/>
	</g>
</g>
<g id="Van-Der-Rohe-_x2022_-Mobile_1_">
	<g id="Mobile" transform="translate(-29.000000, -620.000000)">
		<g id="_x30_2---pq-comprar" transform="translate(0.000000, 461.000000)">
			<g id="otimo-investimento-copy" transform="translate(24.000000, 159.000000)">
				<g id="Icon" transform="translate(5.000000, 0.000000)">
					<path id="Fill-38" class="st0" d="M63.6,12.7l-3.4-1.8c-0.3-0.2-0.7,0-0.8,0.3c-0.2,0.3,0,0.7,0.3,0.8l3.4,1.8
						c0.1,0,0.2,0.1,0.3,0.1c0.2,0,0.4-0.1,0.5-0.3C64,13.2,63.9,12.9,63.6,12.7"/>
					<path id="Fill-39" class="st0" d="M63.6,15.9l-3.4-1.8c-0.3-0.2-0.7,0-0.8,0.3c-0.2,0.3,0,0.7,0.3,0.8l3.4,1.8
						c0.1,0,0.2,0.1,0.3,0.1c0.2,0,0.4-0.1,0.5-0.3C64,16.4,63.9,16.1,63.6,15.9"/>
					<path id="Fill-40" class="st0" d="M63.6,19.1l-3.4-1.8c-0.3-0.2-0.7,0-0.8,0.3c-0.2,0.3,0,0.7,0.3,0.8l3.4,1.8
						c0.1,0,0.2,0.1,0.3,0.1c0.2,0,0.4-0.1,0.5-0.3C64,19.7,63.9,19.3,63.6,19.1"/>
					<path id="Fill-41" class="st0" d="M63.6,22.4l-3.4-1.8c-0.3-0.2-0.7,0-0.8,0.3c-0.2,0.3,0,0.7,0.3,0.8l3.4,1.8
						c0.1,0,0.2,0.1,0.3,0.1c0.2,0,0.4-0.1,0.5-0.3C64,22.9,63.9,22.5,63.6,22.4"/>
					<path id="Fill-42" class="st0" d="M65.7,36l-14.8-7.8V26l14.5,7.7c0.1,0,0.2,0.1,0.3,0.1s0.2,0,0.3-0.1L80.5,26v2.2L65.7,36z
						 M56.9,22.2V25c0,0.2,0.1,0.4,0.3,0.5l8.2,4.3c0.1,0,0.2,0.1,0.3,0.1s0.2,0,0.3-0.1l8.2-4.3c0.2-0.1,0.3-0.3,0.3-0.5v-2.8
						l5.3,2.8l-14.1,7.5L51.6,25L56.9,22.2z M58.2,24.7V7.5l7,3.7v17.2L58.2,24.7z M65.7,2.8l6.9,3.6l-6.9,3.7l-6.9-3.6L65.7,2.8z
						 M71.6,21.6c-0.2-0.1-0.4-0.1-0.6,0l-3,1.6c-0.2,0.1-0.3,0.3-0.3,0.5v3.9l-1.4,0.7V11.2l7-3.7v17.2l-1.4,0.7v-3.3
						C71.9,21.9,71.8,21.7,71.6,21.6z M68.9,27v-2.9l1.8-1V26L68.9,27z M81.4,24.5l-6.9-3.6V6.5c0-0.2-0.1-0.4-0.3-0.5L66,1.7
						c-0.2-0.1-0.4-0.1-0.6,0L57.2,6c-0.2,0.1-0.3,0.3-0.3,0.5v14.4l-6.8,3.6c-0.2,0.1-0.3,0.3-0.3,0.5v3.6c0,0.2,0.1,0.4,0.3,0.5
						l15.4,8.1c0.1,0,0.2,0.1,0.3,0.1s0.2,0,0.3-0.1l15.3-8.1c0.2-0.1,0.3-0.3,0.3-0.5V25C81.7,24.8,81.6,24.6,81.4,24.5L81.4,24.5z
						"/>
					<path id="Fill-43" class="st0" d="M68.1,13.8c0.1,0,0.2,0,0.3-0.1l3.4-1.8c0.3-0.2,0.4-0.5,0.3-0.8s-0.5-0.4-0.8-0.3l-3.4,1.8
						c-0.3,0.2-0.4,0.5-0.3,0.8C67.7,13.7,67.9,13.8,68.1,13.8"/>
					<path id="Fill-44" class="st0" d="M68.1,17.1c0.1,0,0.2,0,0.3-0.1l3.4-1.8c0.3-0.2,0.4-0.5,0.3-0.8c-0.2-0.3-0.5-0.4-0.8-0.3
						l-3.4,1.8c-0.3,0.2-0.4,0.5-0.3,0.8C67.7,16.9,67.9,17.1,68.1,17.1"/>
					<path id="Fill-45" class="st0" d="M72,17.6c-0.2-0.3-0.5-0.4-0.8-0.3l-3.3,1.8c-0.3,0.2-0.4,0.5-0.3,0.8
						c0.1,0.2,0.3,0.3,0.5,0.3c0.1,0,0.2,0,0.3-0.1l3.4-1.8C72.1,18.3,72.2,17.9,72,17.6"/>
				</g>
			</g>
		</g>
	</g>
</g>
<g id="Van-Der-Rohe-_x2022_-Mobile_2_">
	<g id="Mobile_1_" transform="translate(-30.000000, -798.000000)">
		<g id="_x30_2---pq-comprar_1_" transform="translate(0.000000, 461.000000)">
			<g id="Lazer-para-toda-família" transform="translate(24.000000, 337.000000)">
				<path id="Icon_Location" class="st0" d="M109,9.9c-2.2,0-3.9,1.8-3.9,3.9s1.8,3.9,3.9,3.9s3.9-1.8,3.9-3.9S111.1,9.9,109,9.9
					 M109,19.8c-3.3,0-6-2.7-6-6s2.7-6,6-6s6,2.7,6,6S112.3,19.8,109,19.8 M109,2.1c-6.4,0-11.7,5.2-11.7,11.7
					c0,9.2,9.4,18.7,11.7,20.1c2.1-1.4,11.7-10.8,11.7-20.1C120.6,7.3,115.4,2.1,109,2.1 M109,36c-1.5,0-5.4-4.1-7.6-7
					c-2.8-3.7-6.1-9.3-6.1-15.2c0-7.6,6.2-13.8,13.8-13.8s13.8,6.2,13.8,13.8c0,5.9-3.4,11.5-6.2,15.2C114.2,31.9,110.2,36,109,36"
					/>
			</g>
		</g>
	</g>
</g>
<g id="Van-Der-Rohe-_x2022_-Mobile_3_">
	<g id="Mobile_2_" transform="translate(-40.000000, -404.000000)">
		<g id="BARRA-MULTICANAL" transform="translate(0.000000, 282.000000)">
			<g id="Page-1_1_" transform="translate(40.000000, 122.000000)">
				<g id="Group-3" transform="translate(0.000000, 0.264562)">
					<path id="Fill-1_1_" class="st1" d="M21,43.1c-6.6,0-12,3.6-12,8c0,2.8,2.3,5.5,5.9,6.9c0.2,0.1,0.3,0.2,0.3,0.3
						c0.1,0.2,0.1,0.3,0,0.5c-0.5,1.3-1.3,2.6-2,3.6c2.1-0.3,4-1.4,5.6-3.2c0.1-0.2,0.3-0.2,0.5-0.2c0.5,0,1,0.1,1.6,0.1
						c6.6,0,12-3.6,12-8C33,46.7,27.6,43.1,21,43.1 M11.8,63.9c-0.3,0-0.5-0.2-0.6-0.4c-0.1-0.2,0-0.5,0.1-0.7
						c0.6-0.6,1.7-2.2,2.5-3.8c-3.7-1.7-6-4.7-6-7.9c0-5.1,6-9.3,13.3-9.3s13.3,4.2,13.3,9.3s-5.9,9.3-13.3,9.3
						c-0.5,0-0.9,0-1.4-0.1C17.5,62.7,14.9,63.9,11.8,63.9"/>
				</g>
				<path id="icon-cfal-com-a-gente" class="st1" d="M32.7,62.5c-0.4,0-0.8,0.1-1.2,0.1c-2.9,0-5.7-0.7-7.9-2
					c-0.3-0.2-0.4-0.6-0.2-0.9c0.2-0.3,0.6-0.4,0.9-0.2c2,1.2,4.6,1.8,7.3,1.8c0.5,0,1,0,1.4-0.1c0.2,0,0.4,0.1,0.5,0.2
					c1.4,1.6,3.2,2.6,5.1,2.9c-0.7-0.9-1.4-2.1-1.8-3.3c-0.1-0.2-0.1-0.3,0-0.5c0.1-0.2,0.2-0.3,0.4-0.3c3.4-1.3,5.5-3.8,5.5-6.3
					c0-4.1-4.9-7.4-11-7.4c-0.4,0-0.6-0.3-0.6-0.6c0-0.4,0.3-0.6,0.6-0.6c6.8,0,12.3,3.9,12.3,8.6c0,3-2.2,5.7-5.7,7.3
					c0.7,1.5,1.7,2.9,2.3,3.5c0.2,0.2,0.2,0.5,0.1,0.7c-0.1,0.2-0.3,0.4-0.6,0.4C37.2,65.8,34.7,64.7,32.7,62.5z"/>
			</g>
		</g>
	</g>
</g>
<g id="Van-Der-Rohe-_x2022_-Mobile_4_">
	<g id="Mobile_3_" transform="translate(-24.000000, -1490.000000)">
		<g id="_x30_3---qualidade-de-vida-para-sua-familia" transform="translate(0.000000, 1175.454545)">
			<g id="Group" transform="translate(16.000000, 209.000000)">
				<path id="Open-Icon" class="st1" d="M66.2,161.1l4.3-4.3c0.4-0.4,0.4-1.1,0-1.5s-1.1-0.4-1.5,0l-4.8,4.8c-0.3,0.3-0.4,0.7-0.3,1
					c-0.1,0.4,0,0.7,0.3,1l4.8,4.8c0.4,0.4,1.1,0.4,1.5,0s0.4-1.1,0-1.5L66.2,161.1z"/>
			</g>
		</g>
	</g>
</g>
<g id="Van-Der-Rohe-_x2022_-Mobile_5_">
	<g id="Mobile_4_" transform="translate(-288.000000, -1490.000000)">
		<g id="_x30_3---qualidade-de-vida-para-sua-familia_1_" transform="translate(0.000000, 1175.454545)">
			<g id="Group_1_" transform="translate(16.000000, 209.000000)">
				<path id="Open-Icon_1_" class="st1" d="M345.8,161.1l-4.3-4.3c-0.4-0.4-0.4-1.1,0-1.5s1.1-0.4,1.5,0l4.8,4.8
					c0.3,0.3,0.4,0.7,0.3,1c0.1,0.4,0,0.7-0.3,1l-4.8,4.8c-0.4,0.4-1.1,0.4-1.5,0s-0.4-1.1,0-1.5L345.8,161.1z"/>
			</g>
		</g>
	</g>
</g>
<g id="Van-Der-Rohe-_x2022_-Mobile_6_">
	<g id="Mobile_5_" transform="translate(-252.000000, -3271.000000)">
		<g id="_x30_4---plantas-copy" transform="translate(0.000000, 1665.000000)">
			<g id="Planta-88m" transform="translate(16.000000, 1582.000000)">
				<g id="Size" transform="translate(235.565217, 24.260870)">
					<g id="XMLID_20_" transform="translate(0.167702, 0.000000)">
						<g id="Shape">
							<path id="path-1_1_" class="st2" d="M132.3,5.4h18.2c2.8,0,5,2.2,5,5v18.2c0,2.8-2.2,5-5,5h-18.2c-2.8,0-5-2.2-5-5V10.4
								C127.3,7.6,129.5,5.4,132.3,5.4z"/>
						</g>
						<path id="Combined-Shape" class="st3" d="M140.7,20.3c0.2-0.2,0.6-0.2,0.8,0s0.2,0.6,0,0.8l-4.3,4.3h2.7
							c0.3,0,0.6,0.3,0.6,0.6c0,0.3-0.3,0.6-0.6,0.6h-4.1c-0.1,0-0.2,0-0.2,0l0,0l0,0c-0.1,0-0.1-0.1-0.2-0.1l0,0l-0.1-0.1
							c0,0,0,0,0-0.1s0-0.1,0-0.2V22c0-0.3,0.3-0.6,0.6-0.6s0.6,0.3,0.6,0.6v2.7L140.7,20.3z M149.3,12.8c0,0.1,0,0.1,0,0.2v4.1
							c0,0.3-0.3,0.6-0.6,0.6s-0.6-0.3-0.6-0.6v-2.7l-4.3,4.3c-0.1,0.1-0.3,0.2-0.4,0.2c-0.2,0-0.3-0.1-0.4-0.2
							c-0.2-0.2-0.2-0.6,0-0.8l4.3-4.3h-2.7c-0.3,0-0.6-0.3-0.6-0.6s0.3-0.6,0.6-0.6h4.1l0,0c0.1,0,0.1,0,0.2,0l0,0l0,0
							c0.1,0,0.1,0.1,0.2,0.1l0,0C149.2,12.7,149.2,12.7,149.3,12.8L149.3,12.8z"/>
					</g>
				</g>
			</g>
		</g>
	</g>
</g>
<g id="Van-Der-Rohe-_x2022_-Mobile_7_">
	<g id="Mobile_6_" transform="translate(-138.000000, -3421.000000)">
		<g id="_x30_4---plantas-copy_1_" transform="translate(0.000000, 1665.000000)">
			<g id="Planta-88m_1_" transform="translate(16.000000, 1582.000000)">
				<g id="Mouseover" transform="translate(0.000000, 78.860083)">
					<g id="Size_1_" transform="translate(122.086957, 95.217391)">
						<g id="Shape_1_">
							<path id="path-1_4_" class="st4" d="M172.2,3.2h27.9c4.4,0,8,3.6,8,8v27.9c0,4.4-3.6,8-8,8h-27.8c-4.4,0-8-3.6-8-8V11.2
								C164.2,6.8,167.8,3.2,172.2,3.2z"/>
						</g>
						<g id="Arrows" transform="translate(7.826087, 7.826087)">
							<path id="Fill-3_1_" class="st1" d="M192.3,4c0,0,0-0.1-0.1-0.1c0-0.1-0.1-0.2-0.2-0.2l-0.1-0.1c-0.1-0.1-0.2-0.2-0.3-0.2
								l0,0l0,0c-0.1-0.1-0.3-0.1-0.4-0.1l0,0H183c-0.6,0-1.2,0.5-1.2,1.2s0.5,1.2,1.2,1.2h5.4l-8.6,8.6c-0.5,0.5-0.5,1.2,0,1.7
								c0.2,0.2,0.5,0.3,0.8,0.3s0.6-0.1,0.8-0.3l8.6-8.6v5.4c0,0.6,0.5,1.2,1.2,1.2c0.6,0,1.2-0.5,1.2-1.2V4.4
								C192.4,4.3,192.4,4.1,192.3,4"/>
							<path id="Fill-1_2_" class="st1" d="M175.2,18.8l-8.6,8.6V22c0-0.6-0.5-1.2-1.2-1.2c-0.6,0-1.2,0.5-1.2,1.2v8.2
								c0,0.1,0,0.3,0.1,0.4c0,0,0,0.1,0.1,0.1c0,0.1,0.1,0.2,0.2,0.2l0.1,0.1c0.1,0.1,0.2,0.2,0.3,0.2l0,0l0,0
								c0.1,0.1,0.3,0.1,0.4,0.1h8.2c0.6,0,1.2-0.5,1.2-1.2s-0.5-1.2-1.2-1.2h-5.4l8.6-8.6c0.5-0.5,0.5-1.2,0-1.7
								S175.6,18.4,175.2,18.8"/>
						</g>
					</g>
				</g>
			</g>
		</g>
	</g>
</g>
<g id="Van-Der-Rohe-_x2022_-Mobile_8_">
	<g id="Mobile_7_" transform="translate(-28.000000, -5689.000000)">
		<path id="Icon_Location_1_" class="st1" d="M130.8,5738.4c-1.4,0-2.6,1.2-2.6,2.6s1.2,2.6,2.6,2.6c1.4,0,2.6-1.2,2.6-2.6
			S132.2,5738.4,130.8,5738.4 M130.8,5745c-2.2,0-4-1.8-4-4s1.8-4,4-4s4,1.8,4,4S133,5745,130.8,5745 M130.8,5733.2
			c-4.3,0-7.8,3.5-7.8,7.8c0,6.1,6.3,12.5,7.8,13.4c1.4-1,7.8-7.2,7.8-13.4C138.6,5736.7,135.1,5733.2,130.8,5733.2 M130.8,5755.8
			c-1,0-3.6-2.7-5.1-4.7c-1.9-2.4-4.1-6.2-4.1-10.1c0-5.1,4.1-9.2,9.2-9.2s9.2,4.1,9.2,9.2c0,3.9-2.3,7.7-4.2,10.1
			C134.3,5753.1,131.7,5755.8,130.8,5755.8"/>
	</g>
</g>
<g id="Van-Der-Rohe-_x2022_-Mobile_9_">
	<g id="Mobile_8_" transform="translate(-18.000000, -6889.000000)">
		<g id="Icon_1_" transform="translate(18.000000, 6889.000000)">
			<path id="Fill-1_3_" class="st3" d="M223.3,18.6c-0.2,0.1-0.3,0.4-0.3,0.6c0,0.3,0,3.4,2.7,6.6c2.8,3.3,6,3.7,6.1,3.7
				c0.2,0,0.5,0,0.7-0.2l1.7-1.6c0.8,0.4,2.4,1.4,3.9,2.7c-0.1,0.1-0.3,0.3-0.4,0.4c-1.4,1.2-2.9,2.1-3.5,2.5
				c-1.1-0.3-5.4-1.6-9.5-6.5c-4.2-4.9-4.8-9.3-4.9-10.4c0.4-0.5,1.5-1.8,3-3.1c0.1-0.1,0.3-0.2,0.4-0.4c1.1,1.7,1.8,3.4,2.1,4.3
				L223.3,18.6z M234.6,26.1L234.6,26.1c-0.4-0.2-0.8-0.1-1.1,0.2l-1.7,1.7c-0.8-0.2-2.8-0.9-4.7-3.1s-2.3-4.4-2.3-5.1l1.9-1.5
				c0.3-0.3,0.5-0.7,0.3-1.1c-0.1-0.3-1.1-3.1-2.8-5.6c-0.1-0.2-0.4-0.4-0.6-0.4c-0.3-0.1-0.6,0-0.8,0.2c-0.4,0.3-0.7,0.5-1.1,0.9
				c-1.8,1.6-3.1,3.2-3.4,3.5c-0.1,0.2-0.2,0.4-0.2,0.6c0,0.6,0.4,5.9,5.3,11.6c4.9,5.7,10.1,6.9,10.7,7.1c0.1,0,0.1,0,0.2,0
				c0.2,0,0.3,0,0.5-0.1c0.4-0.2,2.2-1.3,4-2.8c0.4-0.3,0.7-0.6,1-0.9c0.2-0.2,0.3-0.4,0.3-0.7s-0.1-0.5-0.3-0.7
				C237.6,27.8,235.2,26.4,234.6,26.1L234.6,26.1z"/>
			<path id="Fill-4_1_" class="st3" d="M238.5,15.2c-2.1-2.4-5.1-3.8-8.3-4c-0.2,0-0.4,0.1-0.6,0.2c-0.2,0.1-0.3,0.3-0.3,0.6
				c0,0.4,0.3,0.8,0.8,0.9c2.8,0.2,5.3,1.4,7.2,3.4c1.8,2.1,2.8,4.7,2.6,7.5c0,0.2,0.1,0.4,0.2,0.6c0.1,0.2,0.3,0.3,0.6,0.3l0,0
				c0.4,0,0.8-0.3,0.8-0.8C241.7,20.7,240.6,17.6,238.5,15.2"/>
			<path id="Fill-6" class="st3" d="M236.2,23.8L236.2,23.8c0.5,0,0.8-0.3,0.9-0.8c0.1-1.9-0.5-3.7-1.8-5.1c-1.2-1.4-3-2.2-4.8-2.3
				c-0.2,0-0.4,0.1-0.6,0.2c-0.2,0.1-0.3,0.3-0.3,0.6c0,0.4,0.3,0.8,0.8,0.9c1.4,0.1,2.8,0.7,3.7,1.8c1,1.1,1.4,2.4,1.4,3.9
				C235.4,23.4,235.8,23.8,236.2,23.8"/>
		</g>
	</g>
</g>
<g id="Van-Der-Rohe-_x2022_-Mobile_10_">
	<g id="Mobile_9_" transform="translate(-20.000000, -6840.000000)">
		<g id="Icon_2_" transform="translate(20.000000, 6840.000000)">
			<path class="st3" d="M251.9,16v1.2v14.5h24V16H251.9z M256,17.7h16.2l-8.1,5.2L256,17.7z M253.7,18.3l10.4,6.8l10.1-6.6v11.4
				h-20.5L253.7,18.3L253.7,18.3z"/>
		</g>
	</g>
</g>
<g id="Van-Der-Rohe-_x2022_-Desktop">
	<g id="Desktop" transform="translate(-384.000000, -722.000000)">
		<g id="_x30_2---por-que-comprar-aqui" transform="translate(0.000000, 520.000000)">
			<g id="_x30_1---investment" transform="translate(376.000000, 202.000000)">
				<g id="Icon_3_" transform="translate(8.000000, 0.000000)">
					<path id="Fill-38_1_" class="st0" d="M38.6,105.6l-6.7-3.6c-0.6-0.3-1.3-0.1-1.6,0.5s-0.1,1.3,0.5,1.6l6.7,3.6
						c0.2,0.1,0.4,0.1,0.6,0.1c0.4,0,0.9-0.2,1.1-0.6C39.4,106.6,39.2,105.9,38.6,105.6"/>
					<path id="Fill-39_1_" class="st0" d="M38.6,112l-6.7-3.6c-0.6-0.3-1.3-0.1-1.6,0.5s-0.1,1.3,0.5,1.6l6.7,3.6
						c0.2,0.1,0.4,0.1,0.6,0.1c0.4,0,0.9-0.2,1.1-0.6C39.4,113.1,39.2,112.3,38.6,112"/>
					<path id="Fill-40_1_" class="st0" d="M38.6,118.5l-6.7-3.6c-0.6-0.3-1.3-0.1-1.6,0.5c-0.3,0.6-0.1,1.3,0.5,1.6l6.7,3.6
						c0.2,0.1,0.4,0.1,0.6,0.1c0.4,0,0.9-0.2,1.1-0.6C39.4,119.5,39.2,118.8,38.6,118.5"/>
					<path id="Fill-41_1_" class="st0" d="M38.6,124.9l-6.7-3.6c-0.6-0.3-1.3-0.1-1.6,0.5c-0.3,0.6-0.1,1.3,0.5,1.6l6.7,3.6
						c0.2,0.1,0.4,0.1,0.6,0.1c0.4,0,0.9-0.2,1.1-0.6C39.4,125.9,39.2,125.2,38.6,124.9"/>
					<path id="Fill-42_1_" class="st0" d="M42.9,152.2l-29.6-15.6v-4.4l29,15.3c0.2,0.1,0.4,0.1,0.6,0.1s0.4,0,0.6-0.1l29-15.3v4.4
						L42.9,152.2z M25.3,124.6v5.6c0,0.4,0.2,0.9,0.6,1.1l16.4,8.7c0.2,0.1,0.4,0.1,0.6,0.1s0.4,0,0.6-0.1l16.4-8.7
						c0.4-0.2,0.6-0.6,0.6-1.1v-5.6l10.6,5.6l-28.2,14.9l-28.2-14.9L25.3,124.6z M27.7,129.5V95.2l13.9,7.4v34.3L27.7,129.5z
						 M42.9,85.9l13.8,7.3l-13.8,7.3l-13.8-7.3L42.9,85.9z M54.7,123.4c-0.4-0.2-0.8-0.2-1.2,0l-6,3.2c-0.4,0.2-0.6,0.6-0.6,1.1v7.8
						l-2.7,1.4v-34.3l13.9-7.4v34.3l-2.7,1.5v-6.5C55.3,124,55.1,123.6,54.7,123.4z M49.3,134.1v-5.8l3.6-1.9v5.8L49.3,134.1z
						 M74.2,129.2l-13.7-7.3V93.2c0-0.4-0.2-0.8-0.6-1l-16.4-8.7c-0.4-0.2-0.8-0.2-1.1,0L26,92.2c-0.4,0.2-0.6,0.6-0.6,1v28.7
						l-13.9,7.3c-0.4,0.2-0.6,0.6-0.6,1.1v7.1c0,0.4,0.2,0.9,0.6,1.1l30.8,16.3c0.2,0.1,0.4,0.1,0.6,0.1s0.4,0,0.6-0.1l30.8-16.3
						c0.4-0.2,0.6-0.6,0.6-1.1v-7.1C74.9,129.8,74.6,129.4,74.2,129.2L74.2,129.2z"/>
					<path id="Fill-43_1_" class="st5" d="M47.7,107.9c0.2,0,0.4,0,0.6-0.1l6.7-3.6c0.6-0.3,0.8-1,0.5-1.6s-1-0.8-1.6-0.5l-6.7,3.6
						c-0.6,0.3-0.8,1-0.5,1.6C46.8,107.6,47.3,107.9,47.7,107.9"/>
					<path id="Fill-44_1_" class="st5" d="M47.7,114.3c0.2,0,0.4,0,0.6-0.1l6.7-3.6c0.6-0.3,0.8-1,0.5-1.6s-1-0.8-1.6-0.5l-6.7,3.6
						c-0.6,0.3-0.8,1-0.5,1.6C46.8,114.1,47.3,114.3,47.7,114.3"/>
					<path id="Fill-45_1_" class="st5" d="M55.5,115.4c-0.3-0.6-1-0.8-1.6-0.5l-6.7,3.6c-0.6,0.3-0.8,1-0.5,1.6
						c0.2,0.4,0.6,0.6,1.1,0.6c0.2,0,0.4,0,0.6-0.1l6.7-3.6C55.6,116.7,55.8,116,55.5,115.4"/>
				</g>
			</g>
		</g>
	</g>
</g>
<g id="Van-Der-Rohe-_x2022_-Desktop_1_">
	<g id="Desktop_1_" transform="translate(-774.000000, -726.000000)">
		<g id="_x30_2---por-que-comprar-aqui_1_" transform="translate(0.000000, 520.000000)">
			<g id="_x30_2---lazer-para-toda-a-familia" transform="translate(774.000000, 206.000000)">
				<path id="Icon_Location_2_" class="st0" d="M109,99.8c-3.8,0-7,3.1-7,7s3.1,7,7,7c3.8,0,7-3.1,7-7S112.8,99.8,109,99.8
					 M109,117.4c-5.9,0-10.6-4.8-10.6-10.6s4.8-10.6,10.6-10.6c5.9,0,10.6,4.8,10.6,10.6S114.8,117.4,109,117.4 M109,86
					c-11.5,0-20.8,9.3-20.8,20.8c0,16.3,16.8,33.2,20.7,35.7c3.7-2.5,20.8-19.2,20.8-35.7C129.8,95.3,120.4,86,109,86 M109,146.3
					c-2.6,0-9.5-7.3-13.5-12.5c-5-6.5-10.9-16.5-10.9-27c0-13.5,11-24.5,24.5-24.5s24.5,11,24.5,24.5c0,10.5-6,20.5-11.1,27
					C118.3,139,111.3,146.3,109,146.3"/>
			</g>
		</g>
	</g>
</g>
<g id="Van-Der-Rohe-_x2022_-Desktop_2_">
	<g id="Desktop_2_" transform="translate(-1175.000000, -725.000000)">
		<g id="_x30_2---por-que-comprar-aqui_2_" transform="translate(0.000000, 520.000000)">
			<g id="Page-1_2_" transform="translate(1175.000000, 205.000000)">
				<path id="Fill-1_4_" class="st0" d="M168.2,118.9h10.1V110h-10.1V118.9z M187.7,130.3H180c-1,0-1.8,0.8-1.8,1.8s0.8,1.8,1.8,1.8
					h7.7v7.3h-19.6v-7.3h3.1c1,0,1.8-0.8,1.8-1.8s-0.8-1.8-1.8-1.8h-3.1v-7.9h11.8c1,0,1.8-0.8,1.8-1.8V110h6V130.3z M166.4,144.7
					H201c1,0,1.8-0.8,1.8-1.8v-9.1c0.9-0.1,1.6-0.8,1.6-1.7c0-1-0.8-1.8-1.8-1.8h-3.3c-1,0-1.8,0.8-1.8,1.8c0,0.9,0.7,1.7,1.6,1.7
					v7.3h-8V110h8v7.3c-0.9,0.1-1.6,0.8-1.6,1.7c0,1,0.8,1.8,1.8,1.8h3.3c1,0,1.8-0.8,1.8-1.8c0-0.9-0.7-1.7-1.6-1.7v-9.1
					c0-1-0.8-1.8-1.8-1.8h-34.6c-1,0-1.8,0.8-1.8,1.8v34.6C164.6,143.9,165.4,144.7,166.4,144.7L166.4,144.7z"/>
				<path id="Fill-3_2_" class="st0" d="M160.3,123.6h-16.2c-0.9,0-1.5-0.7-1.5-1.5v-16.2c-0.7-0.2-1.2-0.8-1.2-1.5
					c0-0.8,0.7-1.5,1.5-1.5h2.4c0.9,0,1.5,0.7,1.5,1.5c0,0.7-0.5,1.3-1.2,1.5v4.3h9.5v-22h-9.5V93c0.7,0.2,1.2,0.8,1.2,1.5
					c0,0.9-0.7,1.5-1.5,1.5h-2.4c-0.8,0-1.5-0.7-1.5-1.5c0-0.7,0.5-1.3,1.2-1.5v-6.4c0-0.9,0.7-1.5,1.5-1.5h35.5
					c0.9,0,1.5,0.7,1.5,1.5v15.1H178V88.2h-6.6v9c0,0.9-0.7,1.5-1.5,1.5c-0.9,0-1.5-0.7-1.5-1.5v-9h-10.2V104h2.8v3.1h-2.8v4.6
					c0,0.9-0.7,1.5-1.5,1.5h-11v7.3h14.7L160.3,123.6L160.3,123.6z"/>
				<path id="Fill-4_2_" class="st0" d="M157.8,143c-6.1,0-10.3-4.7-11.9-10l2.9,1.5c0.7,0.3,1.5,0.1,1.9-0.6
					c0.3-0.7,0.1-1.5-0.6-1.9l-5.6-2.8h-0.1c-0.1,0-0.2-0.1-0.3-0.1s-0.2,0-0.3,0h-0.1h-0.1c-0.1,0-0.2,0.1-0.3,0.1
					s-0.1,0.1-0.2,0.1c-0.1,0.1-0.1,0.1-0.2,0.2c-0.1,0.1-0.1,0.1-0.2,0.2l-0.1,0.1l-2.8,5.6c-0.3,0.7-0.1,1.5,0.6,1.9
					c0.2,0.1,0.4,0.1,0.6,0.1c0.5,0,1-0.3,1.2-0.8l1.1-2.2c2.1,6,7.1,11.3,14.4,11.3c0.8,0,1.4-0.6,1.4-1.4
					C159.2,143.7,158.6,143.1,157.8,143"/>
				<path id="Fill-5_1_" class="st0" d="M184.9,84.4c6.1,0,10.3,4.7,11.9,10l-2.9-1.5c-0.7-0.3-1.5-0.1-1.9,0.6
					c-0.3,0.7-0.1,1.5,0.6,1.9l5.6,2.8c0,0,0,0,0.1,0c0.2,0.1,0.4,0.1,0.6,0.1c0.1,0,0.1,0,0.2,0c0.2,0,0.4-0.1,0.5-0.2l0,0
					c0.2-0.1,0.3-0.3,0.4-0.5c0,0,0.1,0,0.1-0.1l2.8-5.6c0.3-0.7,0.1-1.5-0.6-1.9c-0.7-0.3-1.5-0.1-1.9,0.6l-1.1,2.2
					c-2.1-6-7.1-11.3-14.4-11.3c-0.8,0.1-1.4,0.6-1.4,1.4C183.5,83.8,184.1,84.4,184.9,84.4"/>
			</g>
		</g>
	</g>
</g>
<g id="Van-Der-Rohe-_x2022_-Desktop_3_">
	<g id="Desktop_3_" transform="translate(-998.000000, -1377.000000)">
		<g id="_x30_3---dor-que-comprar" transform="translate(0.000000, 1060.000000)">
			<g id="Gallery" transform="translate(982.000000, 110.000000)">
				<path id="Open-Icon_2_" class="st1" d="M242.7,268.7l8.4-8.4c0.8-0.8,0.8-2.1,0-2.9s-2.1-0.8-2.9,0l-9.4,9.4
					c-0.5,0.5-0.7,1.3-0.5,2c-0.2,0.7,0,1.4,0.5,2l9.4,9.4c0.8,0.8,2.1,0.8,2.9,0c0.8-0.8,0.8-2.1,0-2.9L242.7,268.7z"/>
			</g>
		</g>
	</g>
</g>
<g id="Van-Der-Rohe-_x2022_-Desktop_4_">
	<g id="Desktop_4_" transform="translate(-1515.000000, -1377.000000)">
		<g id="_x30_3---dor-que-comprar_1_" transform="translate(0.000000, 1060.000000)">
			<g id="Gallery_1_" transform="translate(982.000000, 110.000000)">
				<path id="Open-Icon_3_" class="st1" d="M787.1,268.7l-8.4-8.4c-0.8-0.8-0.8-2.1,0-2.9s2.1-0.8,2.9,0l9.4,9.4
					c0.5,0.5,0.7,1.3,0.5,2c0.2,0.7,0,1.4-0.5,2l-9.4,9.4c-0.8,0.8-2.1,0.8-2.9,0s-0.8-2.1,0-2.9L787.1,268.7z"/>
			</g>
		</g>
	</g>
</g>
</svg>
